%TF.GenerationSoftware,KiCad,Pcbnew,(6.0.5)*%
%TF.CreationDate,2022-06-07T20:50:39+02:00*%
%TF.ProjectId,ESP32-LoRA-ADIO,45535033-322d-44c6-9f52-412d4144494f,rev?*%
%TF.SameCoordinates,Original*%
%TF.FileFunction,Other,Comment*%
%FSLAX46Y46*%
G04 Gerber Fmt 4.6, Leading zero omitted, Abs format (unit mm)*
G04 Created by KiCad (PCBNEW (6.0.5)) date 2022-06-07 20:50:39*
%MOMM*%
%LPD*%
G01*
G04 APERTURE LIST*
%ADD10C,0.100000*%
%ADD11C,0.150000*%
G04 APERTURE END LIST*
D10*
%TO.C,U3*%
X145536904Y-27751190D02*
X145298809Y-27751190D01*
X145275000Y-27989285D01*
X145298809Y-27965476D01*
X145346428Y-27941666D01*
X145465476Y-27941666D01*
X145513095Y-27965476D01*
X145536904Y-27989285D01*
X145560714Y-28036904D01*
X145560714Y-28155952D01*
X145536904Y-28203571D01*
X145513095Y-28227380D01*
X145465476Y-28251190D01*
X145346428Y-28251190D01*
X145298809Y-28227380D01*
X145275000Y-28203571D01*
X146155952Y-28251190D02*
X146155952Y-27917857D01*
X146155952Y-27965476D02*
X146179761Y-27941666D01*
X146227380Y-27917857D01*
X146298809Y-27917857D01*
X146346428Y-27941666D01*
X146370238Y-27989285D01*
X146370238Y-28251190D01*
X146370238Y-27989285D02*
X146394047Y-27941666D01*
X146441666Y-27917857D01*
X146513095Y-27917857D01*
X146560714Y-27941666D01*
X146584523Y-27989285D01*
X146584523Y-28251190D01*
X146822619Y-28251190D02*
X146822619Y-27917857D01*
X146822619Y-27965476D02*
X146846428Y-27941666D01*
X146894047Y-27917857D01*
X146965476Y-27917857D01*
X147013095Y-27941666D01*
X147036904Y-27989285D01*
X147036904Y-28251190D01*
X147036904Y-27989285D02*
X147060714Y-27941666D01*
X147108333Y-27917857D01*
X147179761Y-27917857D01*
X147227380Y-27941666D01*
X147251190Y-27989285D01*
X147251190Y-28251190D01*
D11*
X154713095Y-29566666D02*
X155189285Y-29566666D01*
X154617857Y-29852380D02*
X154951190Y-28852380D01*
X155284523Y-29852380D01*
X155617857Y-29185714D02*
X155617857Y-29852380D01*
X155617857Y-29280952D02*
X155665476Y-29233333D01*
X155760714Y-29185714D01*
X155903571Y-29185714D01*
X155998809Y-29233333D01*
X156046428Y-29328571D01*
X156046428Y-29852380D01*
X156379761Y-29185714D02*
X156760714Y-29185714D01*
X156522619Y-28852380D02*
X156522619Y-29709523D01*
X156570238Y-29804761D01*
X156665476Y-29852380D01*
X156760714Y-29852380D01*
X157475000Y-29804761D02*
X157379761Y-29852380D01*
X157189285Y-29852380D01*
X157094047Y-29804761D01*
X157046428Y-29709523D01*
X157046428Y-29328571D01*
X157094047Y-29233333D01*
X157189285Y-29185714D01*
X157379761Y-29185714D01*
X157475000Y-29233333D01*
X157522619Y-29328571D01*
X157522619Y-29423809D01*
X157046428Y-29519047D01*
X157951190Y-29185714D02*
X157951190Y-29852380D01*
X157951190Y-29280952D02*
X157998809Y-29233333D01*
X158094047Y-29185714D01*
X158236904Y-29185714D01*
X158332142Y-29233333D01*
X158379761Y-29328571D01*
X158379761Y-29852380D01*
X158855952Y-29185714D02*
X158855952Y-29852380D01*
X158855952Y-29280952D02*
X158903571Y-29233333D01*
X158998809Y-29185714D01*
X159141666Y-29185714D01*
X159236904Y-29233333D01*
X159284523Y-29328571D01*
X159284523Y-29852380D01*
X160189285Y-29852380D02*
X160189285Y-29328571D01*
X160141666Y-29233333D01*
X160046428Y-29185714D01*
X159855952Y-29185714D01*
X159760714Y-29233333D01*
X160189285Y-29804761D02*
X160094047Y-29852380D01*
X159855952Y-29852380D01*
X159760714Y-29804761D01*
X159713095Y-29709523D01*
X159713095Y-29614285D01*
X159760714Y-29519047D01*
X159855952Y-29471428D01*
X160094047Y-29471428D01*
X160189285Y-29423809D01*
D10*
X168536904Y-27751190D02*
X168298809Y-27751190D01*
X168275000Y-27989285D01*
X168298809Y-27965476D01*
X168346428Y-27941666D01*
X168465476Y-27941666D01*
X168513095Y-27965476D01*
X168536904Y-27989285D01*
X168560714Y-28036904D01*
X168560714Y-28155952D01*
X168536904Y-28203571D01*
X168513095Y-28227380D01*
X168465476Y-28251190D01*
X168346428Y-28251190D01*
X168298809Y-28227380D01*
X168275000Y-28203571D01*
X169155952Y-28251190D02*
X169155952Y-27917857D01*
X169155952Y-27965476D02*
X169179761Y-27941666D01*
X169227380Y-27917857D01*
X169298809Y-27917857D01*
X169346428Y-27941666D01*
X169370238Y-27989285D01*
X169370238Y-28251190D01*
X169370238Y-27989285D02*
X169394047Y-27941666D01*
X169441666Y-27917857D01*
X169513095Y-27917857D01*
X169560714Y-27941666D01*
X169584523Y-27989285D01*
X169584523Y-28251190D01*
X169822619Y-28251190D02*
X169822619Y-27917857D01*
X169822619Y-27965476D02*
X169846428Y-27941666D01*
X169894047Y-27917857D01*
X169965476Y-27917857D01*
X170013095Y-27941666D01*
X170036904Y-27989285D01*
X170036904Y-28251190D01*
X170036904Y-27989285D02*
X170060714Y-27941666D01*
X170108333Y-27917857D01*
X170179761Y-27917857D01*
X170227380Y-27941666D01*
X170251190Y-27989285D01*
X170251190Y-28251190D01*
D11*
X151403571Y-23852380D02*
X151403571Y-22852380D01*
X151975000Y-23852380D02*
X151546428Y-23280952D01*
X151975000Y-22852380D02*
X151403571Y-23423809D01*
X152403571Y-23328571D02*
X152736904Y-23328571D01*
X152879761Y-23852380D02*
X152403571Y-23852380D01*
X152403571Y-22852380D01*
X152879761Y-22852380D01*
X153308333Y-23328571D02*
X153641666Y-23328571D01*
X153784523Y-23852380D02*
X153308333Y-23852380D01*
X153308333Y-22852380D01*
X153784523Y-22852380D01*
X154213095Y-23852380D02*
X154213095Y-22852380D01*
X154594047Y-22852380D01*
X154689285Y-22900000D01*
X154736904Y-22947619D01*
X154784523Y-23042857D01*
X154784523Y-23185714D01*
X154736904Y-23280952D01*
X154689285Y-23328571D01*
X154594047Y-23376190D01*
X154213095Y-23376190D01*
X155213095Y-23471428D02*
X155975000Y-23471428D01*
X156641666Y-22852380D02*
X156832142Y-22852380D01*
X156927380Y-22900000D01*
X157022619Y-22995238D01*
X157070238Y-23185714D01*
X157070238Y-23519047D01*
X157022619Y-23709523D01*
X156927380Y-23804761D01*
X156832142Y-23852380D01*
X156641666Y-23852380D01*
X156546428Y-23804761D01*
X156451190Y-23709523D01*
X156403571Y-23519047D01*
X156403571Y-23185714D01*
X156451190Y-22995238D01*
X156546428Y-22900000D01*
X156641666Y-22852380D01*
X157498809Y-22852380D02*
X157498809Y-23661904D01*
X157546428Y-23757142D01*
X157594047Y-23804761D01*
X157689285Y-23852380D01*
X157879761Y-23852380D01*
X157975000Y-23804761D01*
X158022619Y-23757142D01*
X158070238Y-23661904D01*
X158070238Y-22852380D01*
X158403571Y-22852380D02*
X158975000Y-22852380D01*
X158689285Y-23852380D02*
X158689285Y-22852380D01*
X159975000Y-22852380D02*
X160641666Y-22852380D01*
X159975000Y-23852380D01*
X160641666Y-23852380D01*
X161213095Y-22852380D02*
X161403571Y-22852380D01*
X161498809Y-22900000D01*
X161594047Y-22995238D01*
X161641666Y-23185714D01*
X161641666Y-23519047D01*
X161594047Y-23709523D01*
X161498809Y-23804761D01*
X161403571Y-23852380D01*
X161213095Y-23852380D01*
X161117857Y-23804761D01*
X161022619Y-23709523D01*
X160975000Y-23519047D01*
X160975000Y-23185714D01*
X161022619Y-22995238D01*
X161117857Y-22900000D01*
X161213095Y-22852380D01*
X162070238Y-23852380D02*
X162070238Y-22852380D01*
X162641666Y-23852380D01*
X162641666Y-22852380D01*
X163117857Y-23328571D02*
X163451190Y-23328571D01*
X163594047Y-23852380D02*
X163117857Y-23852380D01*
X163117857Y-22852380D01*
X163594047Y-22852380D01*
D10*
X165001190Y-24063095D02*
X165001190Y-24301190D01*
X165239285Y-24325000D01*
X165215476Y-24301190D01*
X165191666Y-24253571D01*
X165191666Y-24134523D01*
X165215476Y-24086904D01*
X165239285Y-24063095D01*
X165286904Y-24039285D01*
X165405952Y-24039285D01*
X165453571Y-24063095D01*
X165477380Y-24086904D01*
X165501190Y-24134523D01*
X165501190Y-24253571D01*
X165477380Y-24301190D01*
X165453571Y-24325000D01*
X165501190Y-23444047D02*
X165167857Y-23444047D01*
X165215476Y-23444047D02*
X165191666Y-23420238D01*
X165167857Y-23372619D01*
X165167857Y-23301190D01*
X165191666Y-23253571D01*
X165239285Y-23229761D01*
X165501190Y-23229761D01*
X165239285Y-23229761D02*
X165191666Y-23205952D01*
X165167857Y-23158333D01*
X165167857Y-23086904D01*
X165191666Y-23039285D01*
X165239285Y-23015476D01*
X165501190Y-23015476D01*
X165501190Y-22777380D02*
X165167857Y-22777380D01*
X165215476Y-22777380D02*
X165191666Y-22753571D01*
X165167857Y-22705952D01*
X165167857Y-22634523D01*
X165191666Y-22586904D01*
X165239285Y-22563095D01*
X165501190Y-22563095D01*
X165239285Y-22563095D02*
X165191666Y-22539285D01*
X165167857Y-22491666D01*
X165167857Y-22420238D01*
X165191666Y-22372619D01*
X165239285Y-22348809D01*
X165501190Y-22348809D01*
X166675000Y-28525000D02*
X171275000Y-28525000D01*
X148275000Y-28525000D02*
X148075000Y-28725000D01*
X171275000Y-28525000D02*
X171075000Y-28325000D01*
X166675000Y-28525000D02*
X166875000Y-28325000D01*
X143675000Y-28525000D02*
X148275000Y-28525000D01*
X165875000Y-26400000D02*
X165875000Y-21800000D01*
X143675000Y-28525000D02*
X143875000Y-28325000D01*
X148275000Y-28525000D02*
X148075000Y-28325000D01*
X165875000Y-26400000D02*
X165675000Y-26200000D01*
X165875000Y-26400000D02*
X166075000Y-26200000D01*
X165875000Y-21800000D02*
X166075000Y-22000000D01*
X171275000Y-28525000D02*
X171075000Y-28725000D01*
X166675000Y-28525000D02*
X166875000Y-28725000D01*
X143675000Y-28525000D02*
X143875000Y-28725000D01*
X165875000Y-21800000D02*
X165675000Y-22000000D01*
%TD*%
M02*
