M48
; DRILL file {KiCad (6.0.5)} date Tue Jun  7 21:42:32 2022
; FORMAT={-:-/ absolute / inch / decimal}
; #@! TF.CreationDate,2022-06-07T21:42:32+02:00
; #@! TF.GenerationSoftware,Kicad,Pcbnew,(6.0.5)
; #@! TF.FileFunction,Plated,1,2,PTH
FMAT,2
INCH
; #@! TA.AperFunction,Plated,PTH,ViaDrill
T1C0.0157
; #@! TA.AperFunction,Plated,PTH,ComponentDrill
T2C0.0236
; #@! TA.AperFunction,Plated,PTH,ComponentDrill
T3C0.0335
; #@! TA.AperFunction,Plated,PTH,ComponentDrill
T4C0.0374
; #@! TA.AperFunction,Plated,PTH,ComponentDrill
T5C0.0394
; #@! TA.AperFunction,Plated,PTH,ComponentDrill
T6C0.0591
; #@! TA.AperFunction,Plated,PTH,ComponentDrill
T7C0.0669
%
G90
G05
T1
X5.0719Y-2.0472
X5.1825Y-1.5998
X5.1973Y-1.7512
X5.2123Y-1.4464
X5.3877Y-1.6498
X5.4Y-1.6998
X5.6Y-1.7666
X5.6654Y-1.3214
X5.7087Y-1.8307
X5.9392Y-1.5312
X5.9449Y-1.9685
X5.9476Y-1.6835
X5.9593Y-1.4943
X5.9885Y-1.8429
X5.9931Y-1.8943
X6.1122Y-1.8141
X6.1316Y-1.2666
X6.1811Y-1.437
X6.2037Y-1.7964
X6.3007Y-1.4533
X6.3388Y-1.1492
X6.355Y-1.97
X6.4344Y-1.5846
X6.4712Y-1.7669
X6.8259Y-1.3583
X6.9446Y-1.5548
X7.2047Y-1.4961
T3
X4.782Y-1.5945
X4.782Y-1.7913
T4
X5.2461Y-3.188
X5.3445Y-3.188
X5.4429Y-3.188
X5.5413Y-3.188
X6.25Y-3.2077
X6.3484Y-3.2077
X6.4469Y-3.2077
X6.5453Y-3.2077
T5
X4.7244Y-2.6772
X4.7244Y-2.7756
X7.4213Y-3.2087
X7.5197Y-3.2087
T6
X7.8756Y-1.7504
T7
X7.7756Y-1.6504
X7.7756Y-1.8504
X7.9756Y-1.6504
X7.9756Y-1.8504
T2
G00X4.6619Y-1.5551
M15
G01X4.6895Y-1.5551
M16
G05
G00X4.6895Y-1.8307
M15
G01X4.6619Y-1.8307
M16
G05
T0
M30
