%TF.GenerationSoftware,KiCad,Pcbnew,(6.0.5)*%
%TF.CreationDate,2022-06-07T21:42:27+02:00*%
%TF.ProjectId,ESP32-LoRA-ADIO,45535033-322d-44c6-9f52-412d4144494f,rev?*%
%TF.SameCoordinates,Original*%
%TF.FileFunction,Copper,L2,Bot*%
%TF.FilePolarity,Positive*%
%FSLAX46Y46*%
G04 Gerber Fmt 4.6, Leading zero omitted, Abs format (unit mm)*
G04 Created by KiCad (PCBNEW (6.0.5)) date 2022-06-07 21:42:27*
%MOMM*%
%LPD*%
G01*
G04 APERTURE LIST*
G04 Aperture macros list*
%AMRoundRect*
0 Rectangle with rounded corners*
0 $1 Rounding radius*
0 $2 $3 $4 $5 $6 $7 $8 $9 X,Y pos of 4 corners*
0 Add a 4 corners polygon primitive as box body*
4,1,4,$2,$3,$4,$5,$6,$7,$8,$9,$2,$3,0*
0 Add four circle primitives for the rounded corners*
1,1,$1+$1,$2,$3*
1,1,$1+$1,$4,$5*
1,1,$1+$1,$6,$7*
1,1,$1+$1,$8,$9*
0 Add four rect primitives between the rounded corners*
20,1,$1+$1,$2,$3,$4,$5,0*
20,1,$1+$1,$4,$5,$6,$7,0*
20,1,$1+$1,$6,$7,$8,$9,0*
20,1,$1+$1,$8,$9,$2,$3,0*%
G04 Aperture macros list end*
%TA.AperFunction,ComponentPad*%
%ADD10O,1.700000X1.950000*%
%TD*%
%TA.AperFunction,ComponentPad*%
%ADD11RoundRect,0.250000X-0.600000X-0.725000X0.600000X-0.725000X0.600000X0.725000X-0.600000X0.725000X0*%
%TD*%
%TA.AperFunction,ComponentPad*%
%ADD12O,1.900000X1.200000*%
%TD*%
%TA.AperFunction,ComponentPad*%
%ADD13C,1.450000*%
%TD*%
%TA.AperFunction,ComponentPad*%
%ADD14C,2.250000*%
%TD*%
%TA.AperFunction,ComponentPad*%
%ADD15C,2.050000*%
%TD*%
%TA.AperFunction,ComponentPad*%
%ADD16O,2.000000X1.700000*%
%TD*%
%TA.AperFunction,ComponentPad*%
%ADD17RoundRect,0.250000X-0.750000X0.600000X-0.750000X-0.600000X0.750000X-0.600000X0.750000X0.600000X0*%
%TD*%
%TA.AperFunction,ComponentPad*%
%ADD18O,1.700000X2.000000*%
%TD*%
%TA.AperFunction,ComponentPad*%
%ADD19RoundRect,0.250000X-0.600000X-0.750000X0.600000X-0.750000X0.600000X0.750000X-0.600000X0.750000X0*%
%TD*%
%TA.AperFunction,ViaPad*%
%ADD20C,0.800000*%
%TD*%
%TA.AperFunction,Conductor*%
%ADD21C,0.250000*%
%TD*%
G04 APERTURE END LIST*
D10*
%TO.P,J5,4,Pin_4*%
%TO.N,+3V3*%
X140750000Y-80975000D03*
%TO.P,J5,3,Pin_3*%
%TO.N,Earth*%
X138250000Y-80975000D03*
%TO.P,J5,2,Pin_2*%
%TO.N,ESP-RX*%
X135750000Y-80975000D03*
D11*
%TO.P,J5,1,Pin_1*%
%TO.N,ESP-TX*%
X133250000Y-80975000D03*
%TD*%
D10*
%TO.P,J3,4,Pin_4*%
%TO.N,+3V3*%
X166250000Y-81475000D03*
%TO.P,J3,3,Pin_3*%
%TO.N,Earth*%
X163750000Y-81475000D03*
%TO.P,J3,2,Pin_2*%
%TO.N,ESP-AI*%
X161250000Y-81475000D03*
D11*
%TO.P,J3,1,Pin_1*%
%TO.N,ESP-AO*%
X158750000Y-81475000D03*
%TD*%
D12*
%TO.P,J1,6,Shield*%
%TO.N,Earth*%
X118762500Y-46500000D03*
D13*
X121462500Y-40500000D03*
D12*
X118762500Y-39500000D03*
D13*
X121462500Y-45500000D03*
%TD*%
D14*
%TO.P,J6,2,Ext*%
%TO.N,Earth*%
X202580000Y-41920000D03*
X197500000Y-47000000D03*
X197500000Y-41920000D03*
X202580000Y-47000000D03*
D15*
%TO.P,J6,1,In*%
%TO.N,Net-(J6-Pad1)*%
X200040000Y-44460000D03*
%TD*%
D16*
%TO.P,J2,2,Pin_2*%
%TO.N,Net-(J2-Pad2)*%
X120000000Y-70500000D03*
D17*
%TO.P,J2,1,Pin_1*%
%TO.N,Earth*%
X120000000Y-68000000D03*
%TD*%
D18*
%TO.P,J4,2,Pin_2*%
%TO.N,Net-(J4-Pad2)*%
X191000000Y-81500000D03*
D19*
%TO.P,J4,1,Pin_1*%
%TO.N,Net-(J4-Pad1)*%
X188500000Y-81500000D03*
%TD*%
D20*
%TO.N,Earth*%
X183000000Y-38000000D03*
X145000000Y-46500000D03*
X157000000Y-36500000D03*
X151000000Y-50000000D03*
%TO.N,Lora_MOSI*%
X173377000Y-34500000D03*
X161416900Y-50037800D03*
%TO.N,Lora_DIO1*%
X161006600Y-29190000D03*
X152225400Y-48115000D03*
%TO.N,Lora_RST*%
X176393600Y-39492200D03*
X164369000Y-44878900D03*
%TO.N,Lora_DIO0*%
X155743000Y-32171200D03*
X151069900Y-42761200D03*
%TO.N,UART-RX*%
X136848600Y-41905000D03*
X151365100Y-37955000D03*
%TO.N,UART-TX*%
X137160500Y-43175000D03*
X150854500Y-38891900D03*
%TO.N,IO0_ESP32*%
X142240300Y-44870800D03*
X152106700Y-46809000D03*
%TO.N,ESP-RX*%
X155249200Y-46079400D03*
%TO.N,ESP-TX*%
X157573300Y-45629300D03*
%TO.N,ESP-AI*%
X163434100Y-40249900D03*
%TO.N,ESP-AO*%
X160038800Y-36913000D03*
%TO.N,+3V3*%
X131636600Y-40635000D03*
X143901700Y-33562800D03*
X132011500Y-44480000D03*
%TO.N,Net-(C2-Pad1)*%
X132392200Y-36738600D03*
X128826000Y-52000000D03*
%TD*%
D21*
%TO.N,Lora_MOSI*%
X161416900Y-46460100D02*
X173377000Y-34500000D01*
X161416900Y-50037800D02*
X161416900Y-46460100D01*
%TO.N,Lora_DIO1*%
X152832100Y-37364500D02*
X161006600Y-29190000D01*
X152832100Y-47508300D02*
X152832100Y-37364500D01*
X152225400Y-48115000D02*
X152832100Y-47508300D01*
%TO.N,Lora_RST*%
X171006900Y-44878900D02*
X164369000Y-44878900D01*
X176393600Y-39492200D02*
X171006900Y-44878900D01*
%TO.N,Lora_DIO0*%
X152374100Y-35540100D02*
X155743000Y-32171200D01*
X152374100Y-41457000D02*
X152374100Y-35540100D01*
X151069900Y-42761200D02*
X152374100Y-41457000D01*
%TO.N,UART-RX*%
X140798600Y-37955000D02*
X151365100Y-37955000D01*
X136848600Y-41905000D02*
X140798600Y-37955000D01*
%TO.N,UART-TX*%
X146571400Y-43175000D02*
X137160500Y-43175000D01*
X150854500Y-38891900D02*
X146571400Y-43175000D01*
%TO.N,IO0_ESP32*%
X150168500Y-44870800D02*
X152106700Y-46809000D01*
X142240300Y-44870800D02*
X150168500Y-44870800D01*
%TO.N,ESP-RX*%
X155249200Y-68282800D02*
X155249200Y-46079400D01*
X141240700Y-82291300D02*
X155249200Y-68282800D01*
X137066300Y-82291300D02*
X141240700Y-82291300D01*
X135750000Y-80975000D02*
X137066300Y-82291300D01*
%TO.N,ESP-TX*%
X157573300Y-66595600D02*
X157573300Y-45629300D01*
X141427300Y-82741600D02*
X157573300Y-66595600D01*
X135016600Y-82741600D02*
X141427300Y-82741600D01*
X133250000Y-80975000D02*
X135016600Y-82741600D01*
%TO.N,ESP-AI*%
X161250000Y-81475000D02*
X160074700Y-81475000D01*
X160074700Y-43609300D02*
X160074700Y-81475000D01*
X163434100Y-40249900D02*
X160074700Y-43609300D01*
%TO.N,ESP-AO*%
X158750000Y-38201800D02*
X160038800Y-36913000D01*
X158750000Y-81475000D02*
X158750000Y-38201800D01*
%TO.N,+3V3*%
X133746600Y-42744900D02*
X132011500Y-44480000D01*
X133746600Y-42744900D02*
X131636600Y-40635000D01*
X134233100Y-43231400D02*
X143901700Y-33562800D01*
X133746600Y-42744900D02*
X134233100Y-43231400D01*
X139574700Y-52043200D02*
X132011500Y-44480000D01*
X139574700Y-80975000D02*
X139574700Y-52043200D01*
X140750000Y-80975000D02*
X139574700Y-80975000D01*
%TO.N,Net-(C2-Pad1)*%
X128826000Y-40088200D02*
X128826000Y-52000000D01*
X132175600Y-36738600D02*
X128826000Y-40088200D01*
X132392200Y-36738600D02*
X132175600Y-36738600D01*
%TD*%
%TA.AperFunction,Conductor*%
%TO.N,Earth*%
G36*
X195433621Y-26528502D02*
G01*
X195480114Y-26582158D01*
X195491500Y-26634500D01*
X195491500Y-36991377D01*
X195491498Y-36992147D01*
X195491024Y-37069721D01*
X195495736Y-37086206D01*
X195499150Y-37098153D01*
X195502728Y-37114915D01*
X195506920Y-37144187D01*
X195510634Y-37152355D01*
X195510634Y-37152356D01*
X195517548Y-37167562D01*
X195523996Y-37185086D01*
X195531051Y-37209771D01*
X195535843Y-37217365D01*
X195535844Y-37217368D01*
X195546830Y-37234780D01*
X195554969Y-37249863D01*
X195567208Y-37276782D01*
X195573069Y-37283584D01*
X195583970Y-37296235D01*
X195595073Y-37311239D01*
X195608776Y-37332958D01*
X195615501Y-37338897D01*
X195615504Y-37338901D01*
X195630938Y-37352532D01*
X195642982Y-37364724D01*
X195656427Y-37380327D01*
X195656430Y-37380329D01*
X195662287Y-37387127D01*
X195669816Y-37392007D01*
X195669817Y-37392008D01*
X195683835Y-37401094D01*
X195698709Y-37412385D01*
X195711217Y-37423431D01*
X195717951Y-37429378D01*
X195744711Y-37441942D01*
X195759691Y-37450263D01*
X195776983Y-37461471D01*
X195776988Y-37461473D01*
X195784515Y-37466352D01*
X195793108Y-37468922D01*
X195793113Y-37468924D01*
X195809120Y-37473711D01*
X195826564Y-37480372D01*
X195841676Y-37487467D01*
X195841678Y-37487468D01*
X195849800Y-37491281D01*
X195858667Y-37492662D01*
X195858668Y-37492662D01*
X195861353Y-37493080D01*
X195879017Y-37495830D01*
X195895732Y-37499613D01*
X195915466Y-37505515D01*
X195915472Y-37505516D01*
X195924066Y-37508086D01*
X195933037Y-37508141D01*
X195933038Y-37508141D01*
X195943097Y-37508202D01*
X195958506Y-37508296D01*
X195959289Y-37508329D01*
X195960386Y-37508500D01*
X195991377Y-37508500D01*
X195992147Y-37508502D01*
X196065785Y-37508952D01*
X196065786Y-37508952D01*
X196069721Y-37508976D01*
X196071065Y-37508592D01*
X196072410Y-37508500D01*
X206365500Y-37508500D01*
X206433621Y-37528502D01*
X206480114Y-37582158D01*
X206491500Y-37634500D01*
X206491500Y-75365500D01*
X206471498Y-75433621D01*
X206417842Y-75480114D01*
X206365500Y-75491500D01*
X196008623Y-75491500D01*
X196007853Y-75491498D01*
X196007037Y-75491493D01*
X195930279Y-75491024D01*
X195907918Y-75497415D01*
X195901847Y-75499150D01*
X195885085Y-75502728D01*
X195855813Y-75506920D01*
X195847645Y-75510634D01*
X195847644Y-75510634D01*
X195832438Y-75517548D01*
X195814914Y-75523996D01*
X195790229Y-75531051D01*
X195782635Y-75535843D01*
X195782632Y-75535844D01*
X195765220Y-75546830D01*
X195750137Y-75554969D01*
X195723218Y-75567208D01*
X195716416Y-75573069D01*
X195703765Y-75583970D01*
X195688761Y-75595073D01*
X195667042Y-75608776D01*
X195661103Y-75615501D01*
X195661099Y-75615504D01*
X195647468Y-75630938D01*
X195635276Y-75642982D01*
X195619673Y-75656427D01*
X195619671Y-75656430D01*
X195612873Y-75662287D01*
X195607993Y-75669816D01*
X195607992Y-75669817D01*
X195598906Y-75683835D01*
X195587615Y-75698709D01*
X195576569Y-75711217D01*
X195570622Y-75717951D01*
X195564312Y-75731391D01*
X195558058Y-75744711D01*
X195549737Y-75759691D01*
X195538529Y-75776983D01*
X195538527Y-75776988D01*
X195533648Y-75784515D01*
X195531078Y-75793108D01*
X195531076Y-75793113D01*
X195526289Y-75809120D01*
X195519628Y-75826564D01*
X195512533Y-75841676D01*
X195508719Y-75849800D01*
X195507338Y-75858667D01*
X195507338Y-75858668D01*
X195504170Y-75879015D01*
X195500387Y-75895732D01*
X195494485Y-75915466D01*
X195494484Y-75915472D01*
X195491914Y-75924066D01*
X195491859Y-75933037D01*
X195491859Y-75933038D01*
X195491704Y-75958497D01*
X195491671Y-75959289D01*
X195491500Y-75960386D01*
X195491500Y-75991377D01*
X195491498Y-75992147D01*
X195491024Y-76069721D01*
X195491408Y-76071065D01*
X195491500Y-76072410D01*
X195491500Y-86365500D01*
X195471498Y-86433621D01*
X195417842Y-86480114D01*
X195365500Y-86491500D01*
X125634500Y-86491500D01*
X125566379Y-86471498D01*
X125519886Y-86417842D01*
X125508500Y-86365500D01*
X125508500Y-76008623D01*
X125508502Y-76007853D01*
X125508800Y-75959102D01*
X125508976Y-75930279D01*
X125500850Y-75901847D01*
X125497272Y-75885085D01*
X125494352Y-75864698D01*
X125493080Y-75855813D01*
X125482451Y-75832436D01*
X125476004Y-75814913D01*
X125471416Y-75798862D01*
X125468949Y-75790229D01*
X125464156Y-75782632D01*
X125453170Y-75765220D01*
X125445030Y-75750135D01*
X125442564Y-75744711D01*
X125432792Y-75723218D01*
X125416030Y-75703765D01*
X125404927Y-75688761D01*
X125391224Y-75667042D01*
X125384499Y-75661103D01*
X125384496Y-75661099D01*
X125369062Y-75647468D01*
X125357018Y-75635276D01*
X125343573Y-75619673D01*
X125343570Y-75619671D01*
X125337713Y-75612873D01*
X125324009Y-75603990D01*
X125316165Y-75598906D01*
X125301291Y-75587615D01*
X125288783Y-75576569D01*
X125288782Y-75576568D01*
X125282049Y-75570622D01*
X125255287Y-75558057D01*
X125240309Y-75549737D01*
X125223017Y-75538529D01*
X125223012Y-75538527D01*
X125215485Y-75533648D01*
X125206892Y-75531078D01*
X125206887Y-75531076D01*
X125190880Y-75526289D01*
X125173436Y-75519628D01*
X125158324Y-75512533D01*
X125158322Y-75512532D01*
X125150200Y-75508719D01*
X125141333Y-75507338D01*
X125141332Y-75507338D01*
X125130478Y-75505648D01*
X125120983Y-75504170D01*
X125104268Y-75500387D01*
X125084534Y-75494485D01*
X125084528Y-75494484D01*
X125075934Y-75491914D01*
X125066963Y-75491859D01*
X125066962Y-75491859D01*
X125056903Y-75491798D01*
X125041494Y-75491704D01*
X125040711Y-75491671D01*
X125039614Y-75491500D01*
X125008623Y-75491500D01*
X125007853Y-75491498D01*
X124934215Y-75491048D01*
X124934214Y-75491048D01*
X124930279Y-75491024D01*
X124928935Y-75491408D01*
X124927590Y-75491500D01*
X114634500Y-75491500D01*
X114566379Y-75471498D01*
X114519886Y-75417842D01*
X114508500Y-75365500D01*
X114508500Y-70435774D01*
X118488102Y-70435774D01*
X118496751Y-70666158D01*
X118544093Y-70891791D01*
X118628776Y-71106221D01*
X118748377Y-71303317D01*
X118751874Y-71307347D01*
X118838438Y-71407103D01*
X118899477Y-71477445D01*
X118903608Y-71480832D01*
X119073627Y-71620240D01*
X119073633Y-71620244D01*
X119077755Y-71623624D01*
X119082391Y-71626263D01*
X119082394Y-71626265D01*
X119191422Y-71688327D01*
X119278114Y-71737675D01*
X119494825Y-71816337D01*
X119500074Y-71817286D01*
X119500077Y-71817287D01*
X119717608Y-71856623D01*
X119717615Y-71856624D01*
X119721692Y-71857361D01*
X119739414Y-71858197D01*
X119744356Y-71858430D01*
X119744363Y-71858430D01*
X119745844Y-71858500D01*
X120207890Y-71858500D01*
X120274809Y-71852822D01*
X120374409Y-71844371D01*
X120374413Y-71844370D01*
X120379720Y-71843920D01*
X120384875Y-71842582D01*
X120384881Y-71842581D01*
X120597703Y-71787343D01*
X120597707Y-71787342D01*
X120602872Y-71786001D01*
X120607738Y-71783809D01*
X120607741Y-71783808D01*
X120808202Y-71693507D01*
X120813075Y-71691312D01*
X121004319Y-71562559D01*
X121171135Y-71403424D01*
X121308754Y-71218458D01*
X121413240Y-71012949D01*
X121449321Y-70896752D01*
X121480024Y-70797871D01*
X121481607Y-70792773D01*
X121482308Y-70787484D01*
X121511198Y-70569511D01*
X121511198Y-70569506D01*
X121511898Y-70564226D01*
X121503249Y-70333842D01*
X121455907Y-70108209D01*
X121371224Y-69893779D01*
X121251623Y-69696683D01*
X121164755Y-69596576D01*
X121104023Y-69526588D01*
X121104021Y-69526586D01*
X121100523Y-69522555D01*
X121064471Y-69492994D01*
X121024476Y-69434334D01*
X121022545Y-69363364D01*
X121059290Y-69302616D01*
X121078059Y-69288416D01*
X121217807Y-69201937D01*
X121229208Y-69192901D01*
X121343739Y-69078171D01*
X121352751Y-69066760D01*
X121437816Y-68928757D01*
X121443963Y-68915576D01*
X121495138Y-68761290D01*
X121498005Y-68747914D01*
X121507672Y-68653562D01*
X121508000Y-68647146D01*
X121508000Y-68272115D01*
X121503525Y-68256876D01*
X121502135Y-68255671D01*
X121494452Y-68254000D01*
X118510116Y-68254000D01*
X118494877Y-68258475D01*
X118493672Y-68259865D01*
X118492001Y-68267548D01*
X118492001Y-68647095D01*
X118492338Y-68653614D01*
X118502257Y-68749206D01*
X118505149Y-68762600D01*
X118556588Y-68916784D01*
X118562761Y-68929962D01*
X118648063Y-69067807D01*
X118657099Y-69079208D01*
X118771829Y-69193739D01*
X118783243Y-69202753D01*
X118922713Y-69288723D01*
X118970207Y-69341495D01*
X118981631Y-69411566D01*
X118953357Y-69476690D01*
X118943574Y-69487149D01*
X118828865Y-69596576D01*
X118691246Y-69781542D01*
X118586760Y-69987051D01*
X118585178Y-69992145D01*
X118585177Y-69992148D01*
X118523115Y-70192020D01*
X118518393Y-70207227D01*
X118517692Y-70212516D01*
X118502304Y-70328623D01*
X118488102Y-70435774D01*
X114508500Y-70435774D01*
X114508500Y-67727885D01*
X118492000Y-67727885D01*
X118496475Y-67743124D01*
X118497865Y-67744329D01*
X118505548Y-67746000D01*
X119727885Y-67746000D01*
X119743124Y-67741525D01*
X119744329Y-67740135D01*
X119746000Y-67732452D01*
X119746000Y-67727885D01*
X120254000Y-67727885D01*
X120258475Y-67743124D01*
X120259865Y-67744329D01*
X120267548Y-67746000D01*
X121489884Y-67746000D01*
X121505123Y-67741525D01*
X121506328Y-67740135D01*
X121507999Y-67732452D01*
X121507999Y-67352905D01*
X121507662Y-67346386D01*
X121497743Y-67250794D01*
X121494851Y-67237400D01*
X121443412Y-67083216D01*
X121437239Y-67070038D01*
X121351937Y-66932193D01*
X121342901Y-66920792D01*
X121228171Y-66806261D01*
X121216760Y-66797249D01*
X121078757Y-66712184D01*
X121065576Y-66706037D01*
X120911290Y-66654862D01*
X120897914Y-66651995D01*
X120803562Y-66642328D01*
X120797145Y-66642000D01*
X120272115Y-66642000D01*
X120256876Y-66646475D01*
X120255671Y-66647865D01*
X120254000Y-66655548D01*
X120254000Y-67727885D01*
X119746000Y-67727885D01*
X119746000Y-66660116D01*
X119741525Y-66644877D01*
X119740135Y-66643672D01*
X119732452Y-66642001D01*
X119202905Y-66642001D01*
X119196386Y-66642338D01*
X119100794Y-66652257D01*
X119087400Y-66655149D01*
X118933216Y-66706588D01*
X118920038Y-66712761D01*
X118782193Y-66798063D01*
X118770792Y-66807099D01*
X118656261Y-66921829D01*
X118647249Y-66933240D01*
X118562184Y-67071243D01*
X118556037Y-67084424D01*
X118504862Y-67238710D01*
X118501995Y-67252086D01*
X118492328Y-67346438D01*
X118492000Y-67352855D01*
X118492000Y-67727885D01*
X114508500Y-67727885D01*
X114508500Y-56500000D01*
X116986685Y-56500000D01*
X117005931Y-56867241D01*
X117063459Y-57230459D01*
X117158639Y-57585674D01*
X117159824Y-57588762D01*
X117159825Y-57588764D01*
X117209902Y-57719218D01*
X117290427Y-57928994D01*
X117457380Y-58256657D01*
X117657668Y-58565075D01*
X117889098Y-58850867D01*
X118149133Y-59110902D01*
X118434925Y-59342332D01*
X118743342Y-59542620D01*
X118746276Y-59544115D01*
X118746283Y-59544119D01*
X119068066Y-59708075D01*
X119071006Y-59709573D01*
X119414326Y-59841361D01*
X119769541Y-59936541D01*
X119962558Y-59967112D01*
X120129511Y-59993555D01*
X120129519Y-59993556D01*
X120132759Y-59994069D01*
X120500000Y-60013315D01*
X120867241Y-59994069D01*
X120870481Y-59993556D01*
X120870489Y-59993555D01*
X121037442Y-59967112D01*
X121230459Y-59936541D01*
X121585674Y-59841361D01*
X121928994Y-59709573D01*
X121931934Y-59708075D01*
X122253717Y-59544119D01*
X122253724Y-59544115D01*
X122256658Y-59542620D01*
X122565075Y-59342332D01*
X122850867Y-59110902D01*
X123110902Y-58850867D01*
X123342332Y-58565075D01*
X123542620Y-58256657D01*
X123709573Y-57928994D01*
X123790098Y-57719218D01*
X123840175Y-57588764D01*
X123840176Y-57588762D01*
X123841361Y-57585674D01*
X123936541Y-57230459D01*
X123994069Y-56867241D01*
X124013315Y-56500000D01*
X123994069Y-56132759D01*
X123936541Y-55769541D01*
X123841361Y-55414326D01*
X123797365Y-55299711D01*
X123710757Y-55074091D01*
X123709573Y-55071006D01*
X123542620Y-54743343D01*
X123342332Y-54434925D01*
X123110902Y-54149133D01*
X122850867Y-53889098D01*
X122565075Y-53657668D01*
X122256658Y-53457380D01*
X122253724Y-53455885D01*
X122253717Y-53455881D01*
X121931934Y-53291925D01*
X121928994Y-53290427D01*
X121585674Y-53158639D01*
X121230459Y-53063459D01*
X121037442Y-53032888D01*
X120870489Y-53006445D01*
X120870481Y-53006444D01*
X120867241Y-53005931D01*
X120500000Y-52986685D01*
X120132759Y-53005931D01*
X120129519Y-53006444D01*
X120129511Y-53006445D01*
X119962558Y-53032888D01*
X119769541Y-53063459D01*
X119414326Y-53158639D01*
X119071006Y-53290427D01*
X119068066Y-53291925D01*
X118746284Y-53455881D01*
X118746277Y-53455885D01*
X118743343Y-53457380D01*
X118434925Y-53657668D01*
X118149133Y-53889098D01*
X117889098Y-54149133D01*
X117657668Y-54434925D01*
X117457380Y-54743343D01*
X117290427Y-55071006D01*
X117289243Y-55074091D01*
X117202636Y-55299711D01*
X117158639Y-55414326D01*
X117063459Y-55769541D01*
X117005931Y-56132759D01*
X116986685Y-56500000D01*
X114508500Y-56500000D01*
X114508500Y-52000000D01*
X127912496Y-52000000D01*
X127913186Y-52006565D01*
X127924388Y-52113142D01*
X127932458Y-52189928D01*
X127991473Y-52371556D01*
X128086960Y-52536944D01*
X128214747Y-52678866D01*
X128369248Y-52791118D01*
X128375276Y-52793802D01*
X128375278Y-52793803D01*
X128537681Y-52866109D01*
X128543712Y-52868794D01*
X128637112Y-52888647D01*
X128724056Y-52907128D01*
X128724061Y-52907128D01*
X128730513Y-52908500D01*
X128921487Y-52908500D01*
X128927939Y-52907128D01*
X128927944Y-52907128D01*
X129014888Y-52888647D01*
X129108288Y-52868794D01*
X129114319Y-52866109D01*
X129276722Y-52793803D01*
X129276724Y-52793802D01*
X129282752Y-52791118D01*
X129437253Y-52678866D01*
X129565040Y-52536944D01*
X129660527Y-52371556D01*
X129719542Y-52189928D01*
X129727613Y-52113142D01*
X129738814Y-52006565D01*
X129739504Y-52000000D01*
X129728181Y-51892270D01*
X129720232Y-51816635D01*
X129720232Y-51816633D01*
X129719542Y-51810072D01*
X129660527Y-51628444D01*
X129657086Y-51622483D01*
X129568341Y-51468774D01*
X129565040Y-51463056D01*
X129491863Y-51381785D01*
X129461147Y-51317779D01*
X129459500Y-51297476D01*
X129459500Y-40635000D01*
X130723096Y-40635000D01*
X130743058Y-40824928D01*
X130802073Y-41006556D01*
X130897560Y-41171944D01*
X130901978Y-41176851D01*
X130901979Y-41176852D01*
X130917955Y-41194595D01*
X131025347Y-41313866D01*
X131124443Y-41385864D01*
X131169538Y-41418627D01*
X131179848Y-41426118D01*
X131185876Y-41428802D01*
X131185878Y-41428803D01*
X131348281Y-41501109D01*
X131354312Y-41503794D01*
X131429214Y-41519715D01*
X131534656Y-41542128D01*
X131534661Y-41542128D01*
X131541113Y-41543500D01*
X131597029Y-41543500D01*
X131665150Y-41563502D01*
X131686121Y-41580401D01*
X132693516Y-42587749D01*
X132761585Y-42655815D01*
X132795612Y-42718127D01*
X132790549Y-42788943D01*
X132761587Y-42834009D01*
X132406095Y-43189500D01*
X132060999Y-43534596D01*
X131998687Y-43568621D01*
X131971904Y-43571500D01*
X131916013Y-43571500D01*
X131909561Y-43572872D01*
X131909556Y-43572872D01*
X131832539Y-43589243D01*
X131729212Y-43611206D01*
X131723182Y-43613891D01*
X131723181Y-43613891D01*
X131560778Y-43686197D01*
X131560776Y-43686198D01*
X131554748Y-43688882D01*
X131549407Y-43692762D01*
X131549406Y-43692763D01*
X131516251Y-43716852D01*
X131400247Y-43801134D01*
X131395826Y-43806044D01*
X131395825Y-43806045D01*
X131289360Y-43924287D01*
X131272460Y-43943056D01*
X131238425Y-44002006D01*
X131192167Y-44082128D01*
X131176973Y-44108444D01*
X131117958Y-44290072D01*
X131117268Y-44296633D01*
X131117268Y-44296635D01*
X131104742Y-44415816D01*
X131097996Y-44480000D01*
X131117958Y-44669928D01*
X131176973Y-44851556D01*
X131180276Y-44857278D01*
X131180277Y-44857279D01*
X131205514Y-44900990D01*
X131272460Y-45016944D01*
X131400247Y-45158866D01*
X131554748Y-45271118D01*
X131560776Y-45273802D01*
X131560778Y-45273803D01*
X131719280Y-45344372D01*
X131729212Y-45348794D01*
X131819169Y-45367915D01*
X131909556Y-45387128D01*
X131909561Y-45387128D01*
X131916013Y-45388500D01*
X131971906Y-45388500D01*
X132040027Y-45408502D01*
X132061001Y-45425405D01*
X138904295Y-52268700D01*
X138938321Y-52331012D01*
X138941200Y-52357795D01*
X138941200Y-79473014D01*
X138921198Y-79541135D01*
X138867542Y-79587628D01*
X138797268Y-79597732D01*
X138767794Y-79589756D01*
X138757666Y-79585643D01*
X138547760Y-79520466D01*
X138537376Y-79518183D01*
X138521957Y-79516139D01*
X138507793Y-79518335D01*
X138504000Y-79531522D01*
X138504000Y-81103000D01*
X138483998Y-81171121D01*
X138430342Y-81217614D01*
X138378000Y-81229000D01*
X138122000Y-81229000D01*
X138053879Y-81208998D01*
X138007386Y-81155342D01*
X137996000Y-81103000D01*
X137996000Y-79533808D01*
X137992027Y-79520277D01*
X137981420Y-79518752D01*
X137863579Y-79543477D01*
X137853383Y-79546537D01*
X137648971Y-79627263D01*
X137639439Y-79631994D01*
X137451538Y-79746016D01*
X137442948Y-79752280D01*
X137276948Y-79896327D01*
X137269528Y-79903958D01*
X137130174Y-80073911D01*
X137124152Y-80082674D01*
X137108762Y-80109711D01*
X137057680Y-80159018D01*
X136988049Y-80172880D01*
X136921978Y-80146897D01*
X136894739Y-80117747D01*
X136845152Y-80044093D01*
X136812559Y-79995681D01*
X136763511Y-79944265D01*
X136725059Y-79903958D01*
X136653424Y-79828865D01*
X136468458Y-79691246D01*
X136463707Y-79688830D01*
X136463703Y-79688828D01*
X136345588Y-79628776D01*
X136262949Y-79586760D01*
X136257855Y-79585178D01*
X136257852Y-79585177D01*
X136047871Y-79519976D01*
X136042773Y-79518393D01*
X136037484Y-79517692D01*
X135819511Y-79488802D01*
X135819506Y-79488802D01*
X135814226Y-79488102D01*
X135808897Y-79488302D01*
X135808895Y-79488302D01*
X135699034Y-79492426D01*
X135583842Y-79496751D01*
X135578623Y-79497846D01*
X135556566Y-79502474D01*
X135358209Y-79544093D01*
X135353250Y-79546051D01*
X135353248Y-79546052D01*
X135148744Y-79626815D01*
X135148742Y-79626816D01*
X135143779Y-79628776D01*
X135139220Y-79631543D01*
X135139217Y-79631544D01*
X135040832Y-79691246D01*
X134946683Y-79748377D01*
X134942653Y-79751874D01*
X134849484Y-79832722D01*
X134772555Y-79899477D01*
X134743330Y-79935120D01*
X134684671Y-79975114D01*
X134613701Y-79977046D01*
X134552952Y-79940302D01*
X134538752Y-79921532D01*
X134452332Y-79781880D01*
X134448478Y-79775652D01*
X134323303Y-79650695D01*
X134292965Y-79631994D01*
X134178968Y-79561725D01*
X134178966Y-79561724D01*
X134172738Y-79557885D01*
X134059353Y-79520277D01*
X134011389Y-79504368D01*
X134011387Y-79504368D01*
X134004861Y-79502203D01*
X133998025Y-79501503D01*
X133998022Y-79501502D01*
X133954969Y-79497091D01*
X133900400Y-79491500D01*
X132599600Y-79491500D01*
X132596354Y-79491837D01*
X132596350Y-79491837D01*
X132500692Y-79501762D01*
X132500688Y-79501763D01*
X132493834Y-79502474D01*
X132487298Y-79504655D01*
X132487296Y-79504655D01*
X132355194Y-79548728D01*
X132326054Y-79558450D01*
X132175652Y-79651522D01*
X132050695Y-79776697D01*
X132046855Y-79782927D01*
X132046854Y-79782928D01*
X131976954Y-79896327D01*
X131957885Y-79927262D01*
X131937705Y-79988102D01*
X131905353Y-80085643D01*
X131902203Y-80095139D01*
X131901503Y-80101975D01*
X131901502Y-80101978D01*
X131898473Y-80131544D01*
X131891500Y-80199600D01*
X131891500Y-81750400D01*
X131891837Y-81753646D01*
X131891837Y-81753650D01*
X131894396Y-81778308D01*
X131902474Y-81856166D01*
X131958450Y-82023946D01*
X132051522Y-82174348D01*
X132176697Y-82299305D01*
X132182927Y-82303145D01*
X132182928Y-82303146D01*
X132301724Y-82376373D01*
X132327262Y-82392115D01*
X132369625Y-82406166D01*
X132488611Y-82445632D01*
X132488613Y-82445632D01*
X132495139Y-82447797D01*
X132501975Y-82448497D01*
X132501978Y-82448498D01*
X132545031Y-82452909D01*
X132599600Y-82458500D01*
X133785406Y-82458500D01*
X133853527Y-82478502D01*
X133874501Y-82495405D01*
X134512943Y-83133847D01*
X134520487Y-83142137D01*
X134524600Y-83148618D01*
X134530377Y-83154043D01*
X134574267Y-83195258D01*
X134577109Y-83198013D01*
X134596831Y-83217735D01*
X134599955Y-83220158D01*
X134599959Y-83220162D01*
X134600024Y-83220212D01*
X134609045Y-83227917D01*
X134641279Y-83258186D01*
X134648227Y-83262005D01*
X134648229Y-83262007D01*
X134659032Y-83267946D01*
X134675559Y-83278802D01*
X134685298Y-83286357D01*
X134685300Y-83286358D01*
X134691560Y-83291214D01*
X134732140Y-83308774D01*
X134742788Y-83313991D01*
X134767576Y-83327618D01*
X134781540Y-83335295D01*
X134789216Y-83337266D01*
X134789219Y-83337267D01*
X134801162Y-83340333D01*
X134819867Y-83346737D01*
X134838455Y-83354781D01*
X134846278Y-83356020D01*
X134846288Y-83356023D01*
X134882124Y-83361699D01*
X134893744Y-83364105D01*
X134925559Y-83372273D01*
X134936570Y-83375100D01*
X134956824Y-83375100D01*
X134976534Y-83376651D01*
X134996543Y-83379820D01*
X135004435Y-83379074D01*
X135023180Y-83377302D01*
X135040562Y-83375659D01*
X135052419Y-83375100D01*
X141348533Y-83375100D01*
X141359716Y-83375627D01*
X141367209Y-83377302D01*
X141375135Y-83377053D01*
X141375136Y-83377053D01*
X141435286Y-83375162D01*
X141439245Y-83375100D01*
X141467156Y-83375100D01*
X141471091Y-83374603D01*
X141471156Y-83374595D01*
X141482993Y-83373662D01*
X141515251Y-83372648D01*
X141519270Y-83372522D01*
X141527189Y-83372273D01*
X141546643Y-83366621D01*
X141566000Y-83362613D01*
X141578230Y-83361068D01*
X141578231Y-83361068D01*
X141586097Y-83360074D01*
X141593468Y-83357155D01*
X141593470Y-83357155D01*
X141627212Y-83343796D01*
X141638442Y-83339951D01*
X141673283Y-83329829D01*
X141673284Y-83329829D01*
X141680893Y-83327618D01*
X141687712Y-83323585D01*
X141687717Y-83323583D01*
X141698328Y-83317307D01*
X141716076Y-83308612D01*
X141734917Y-83301152D01*
X141770687Y-83275164D01*
X141780607Y-83268648D01*
X141811835Y-83250180D01*
X141811838Y-83250178D01*
X141818662Y-83246142D01*
X141832983Y-83231821D01*
X141848017Y-83218980D01*
X141849731Y-83217735D01*
X141864407Y-83207072D01*
X141892598Y-83172995D01*
X141900588Y-83164216D01*
X157901405Y-67163399D01*
X157963717Y-67129373D01*
X158034532Y-67134438D01*
X158091368Y-67176985D01*
X158116179Y-67243505D01*
X158116500Y-67252494D01*
X158116500Y-79876144D01*
X158096498Y-79944265D01*
X158042842Y-79990758D01*
X158003504Y-80001471D01*
X157993834Y-80002474D01*
X157987298Y-80004655D01*
X157987296Y-80004655D01*
X157855194Y-80048728D01*
X157826054Y-80058450D01*
X157675652Y-80151522D01*
X157550695Y-80276697D01*
X157546855Y-80282927D01*
X157546854Y-80282928D01*
X157472466Y-80403608D01*
X157457885Y-80427262D01*
X157402203Y-80595139D01*
X157401503Y-80601975D01*
X157401502Y-80601978D01*
X157399884Y-80617768D01*
X157391500Y-80699600D01*
X157391500Y-82250400D01*
X157391837Y-82253646D01*
X157391837Y-82253650D01*
X157400827Y-82340289D01*
X157402474Y-82356166D01*
X157404655Y-82362702D01*
X157404655Y-82362704D01*
X157436405Y-82457870D01*
X157458450Y-82523946D01*
X157551522Y-82674348D01*
X157676697Y-82799305D01*
X157682927Y-82803145D01*
X157682928Y-82803146D01*
X157820090Y-82887694D01*
X157827262Y-82892115D01*
X157862938Y-82903948D01*
X157988611Y-82945632D01*
X157988613Y-82945632D01*
X157995139Y-82947797D01*
X158001975Y-82948497D01*
X158001978Y-82948498D01*
X158037663Y-82952154D01*
X158099600Y-82958500D01*
X159400400Y-82958500D01*
X159403646Y-82958163D01*
X159403650Y-82958163D01*
X159499308Y-82948238D01*
X159499312Y-82948237D01*
X159506166Y-82947526D01*
X159512702Y-82945345D01*
X159512704Y-82945345D01*
X159644806Y-82901272D01*
X159673946Y-82891550D01*
X159824348Y-82798478D01*
X159949305Y-82673303D01*
X160039081Y-82527660D01*
X160091852Y-82480168D01*
X160161924Y-82468744D01*
X160227048Y-82497018D01*
X160237510Y-82506805D01*
X160275872Y-82547018D01*
X160346576Y-82621135D01*
X160531542Y-82758754D01*
X160536293Y-82761170D01*
X160536297Y-82761172D01*
X160599481Y-82793296D01*
X160737051Y-82863240D01*
X160742145Y-82864822D01*
X160742148Y-82864823D01*
X160890289Y-82910822D01*
X160957227Y-82931607D01*
X160962516Y-82932308D01*
X161180489Y-82961198D01*
X161180494Y-82961198D01*
X161185774Y-82961898D01*
X161191103Y-82961698D01*
X161191105Y-82961698D01*
X161316189Y-82957002D01*
X161416158Y-82953249D01*
X161438802Y-82948498D01*
X161636572Y-82907002D01*
X161641791Y-82905907D01*
X161646750Y-82903949D01*
X161646752Y-82903948D01*
X161851256Y-82823185D01*
X161851258Y-82823184D01*
X161856221Y-82821224D01*
X161861525Y-82818006D01*
X162015867Y-82724348D01*
X162053317Y-82701623D01*
X162085953Y-82673303D01*
X162223412Y-82554023D01*
X162223414Y-82554021D01*
X162227445Y-82550523D01*
X162294500Y-82468744D01*
X162370240Y-82376373D01*
X162370244Y-82376367D01*
X162373624Y-82372245D01*
X162386681Y-82349308D01*
X162391829Y-82340265D01*
X162442912Y-82290959D01*
X162512542Y-82277098D01*
X162578613Y-82303082D01*
X162605851Y-82332232D01*
X162684852Y-82449578D01*
X162691519Y-82457870D01*
X162843228Y-82616900D01*
X162851186Y-82623941D01*
X163027525Y-82755141D01*
X163036562Y-82760745D01*
X163232484Y-82860357D01*
X163242335Y-82864357D01*
X163452240Y-82929534D01*
X163462624Y-82931817D01*
X163478043Y-82933861D01*
X163492207Y-82931665D01*
X163496000Y-82918478D01*
X163496000Y-82916192D01*
X164004000Y-82916192D01*
X164007973Y-82929723D01*
X164018580Y-82931248D01*
X164136421Y-82906523D01*
X164146617Y-82903463D01*
X164351029Y-82822737D01*
X164360561Y-82818006D01*
X164548462Y-82703984D01*
X164557052Y-82697720D01*
X164723052Y-82553673D01*
X164730472Y-82546042D01*
X164869826Y-82376089D01*
X164875848Y-82367326D01*
X164891238Y-82340289D01*
X164942320Y-82290982D01*
X165011951Y-82277120D01*
X165078022Y-82303103D01*
X165105261Y-82332253D01*
X165134455Y-82375616D01*
X165187441Y-82454319D01*
X165346576Y-82621135D01*
X165531542Y-82758754D01*
X165536293Y-82761170D01*
X165536297Y-82761172D01*
X165599481Y-82793296D01*
X165737051Y-82863240D01*
X165742145Y-82864822D01*
X165742148Y-82864823D01*
X165890289Y-82910822D01*
X165957227Y-82931607D01*
X165962516Y-82932308D01*
X166180489Y-82961198D01*
X166180494Y-82961198D01*
X166185774Y-82961898D01*
X166191103Y-82961698D01*
X166191105Y-82961698D01*
X166316189Y-82957002D01*
X166416158Y-82953249D01*
X166438802Y-82948498D01*
X166636572Y-82907002D01*
X166641791Y-82905907D01*
X166646750Y-82903949D01*
X166646752Y-82903948D01*
X166851256Y-82823185D01*
X166851258Y-82823184D01*
X166856221Y-82821224D01*
X166861525Y-82818006D01*
X167015867Y-82724348D01*
X167053317Y-82701623D01*
X167085953Y-82673303D01*
X167223412Y-82554023D01*
X167223414Y-82554021D01*
X167227445Y-82550523D01*
X167294500Y-82468744D01*
X167370240Y-82376373D01*
X167370244Y-82376367D01*
X167373624Y-82372245D01*
X167391815Y-82340289D01*
X167414521Y-82300400D01*
X187141500Y-82300400D01*
X187141837Y-82303646D01*
X187141837Y-82303650D01*
X187150618Y-82388275D01*
X187152474Y-82406166D01*
X187154655Y-82412702D01*
X187154655Y-82412704D01*
X187186050Y-82506805D01*
X187208450Y-82573946D01*
X187301522Y-82724348D01*
X187426697Y-82849305D01*
X187432927Y-82853145D01*
X187432928Y-82853146D01*
X187570090Y-82937694D01*
X187577262Y-82942115D01*
X187612938Y-82953948D01*
X187738611Y-82995632D01*
X187738613Y-82995632D01*
X187745139Y-82997797D01*
X187751975Y-82998497D01*
X187751978Y-82998498D01*
X187787663Y-83002154D01*
X187849600Y-83008500D01*
X189150400Y-83008500D01*
X189153646Y-83008163D01*
X189153650Y-83008163D01*
X189249308Y-82998238D01*
X189249312Y-82998237D01*
X189256166Y-82997526D01*
X189262702Y-82995345D01*
X189262704Y-82995345D01*
X189403900Y-82948238D01*
X189423946Y-82941550D01*
X189574348Y-82848478D01*
X189699305Y-82723303D01*
X189711214Y-82703984D01*
X189760553Y-82623941D01*
X189789081Y-82577660D01*
X189841852Y-82530168D01*
X189911924Y-82518744D01*
X189977048Y-82547018D01*
X189987510Y-82556805D01*
X190029215Y-82600523D01*
X190096576Y-82671135D01*
X190100854Y-82674318D01*
X190141272Y-82704390D01*
X190281542Y-82808754D01*
X190286293Y-82811170D01*
X190286297Y-82811172D01*
X190349481Y-82843296D01*
X190487051Y-82913240D01*
X190492145Y-82914822D01*
X190492148Y-82914823D01*
X190632811Y-82958500D01*
X190707227Y-82981607D01*
X190712516Y-82982308D01*
X190930489Y-83011198D01*
X190930494Y-83011198D01*
X190935774Y-83011898D01*
X190941103Y-83011698D01*
X190941105Y-83011698D01*
X191050966Y-83007573D01*
X191166158Y-83003249D01*
X191188802Y-82998498D01*
X191386572Y-82957002D01*
X191391791Y-82955907D01*
X191396750Y-82953949D01*
X191396752Y-82953948D01*
X191601256Y-82873185D01*
X191601258Y-82873184D01*
X191606221Y-82871224D01*
X191617538Y-82864357D01*
X191796816Y-82755568D01*
X191803317Y-82751623D01*
X191843134Y-82717072D01*
X191973412Y-82604023D01*
X191973414Y-82604021D01*
X191977445Y-82600523D01*
X192015860Y-82553673D01*
X192120240Y-82426373D01*
X192120244Y-82426367D01*
X192123624Y-82422245D01*
X192139464Y-82394419D01*
X192235032Y-82226529D01*
X192237675Y-82221886D01*
X192316337Y-82005175D01*
X192317287Y-81999923D01*
X192356623Y-81782392D01*
X192356624Y-81782385D01*
X192357361Y-81778308D01*
X192358500Y-81754156D01*
X192358500Y-81292110D01*
X192343920Y-81120280D01*
X192342582Y-81115125D01*
X192342581Y-81115119D01*
X192287343Y-80902297D01*
X192287342Y-80902293D01*
X192286001Y-80897128D01*
X192191312Y-80686925D01*
X192062559Y-80495681D01*
X192003918Y-80434209D01*
X191974725Y-80403608D01*
X191903424Y-80328865D01*
X191718458Y-80191246D01*
X191713707Y-80188830D01*
X191713703Y-80188828D01*
X191595588Y-80128776D01*
X191512949Y-80086760D01*
X191507855Y-80085178D01*
X191507852Y-80085177D01*
X191297871Y-80019976D01*
X191292773Y-80018393D01*
X191287484Y-80017692D01*
X191069511Y-79988802D01*
X191069506Y-79988802D01*
X191064226Y-79988102D01*
X191058897Y-79988302D01*
X191058895Y-79988302D01*
X190949034Y-79992426D01*
X190833842Y-79996751D01*
X190828623Y-79997846D01*
X190806566Y-80002474D01*
X190608209Y-80044093D01*
X190603250Y-80046051D01*
X190603248Y-80046052D01*
X190398744Y-80126815D01*
X190398742Y-80126816D01*
X190393779Y-80128776D01*
X190389220Y-80131543D01*
X190389217Y-80131544D01*
X190294113Y-80189255D01*
X190196683Y-80248377D01*
X190192653Y-80251874D01*
X190099484Y-80332722D01*
X190022555Y-80399477D01*
X189993330Y-80435120D01*
X189934671Y-80475114D01*
X189863701Y-80477046D01*
X189802952Y-80440302D01*
X189788752Y-80421532D01*
X189702332Y-80281880D01*
X189698478Y-80275652D01*
X189573303Y-80150695D01*
X189542965Y-80131994D01*
X189428968Y-80061725D01*
X189428966Y-80061724D01*
X189422738Y-80057885D01*
X189309353Y-80020277D01*
X189261389Y-80004368D01*
X189261387Y-80004368D01*
X189254861Y-80002203D01*
X189248025Y-80001503D01*
X189248022Y-80001502D01*
X189204969Y-79997091D01*
X189150400Y-79991500D01*
X187849600Y-79991500D01*
X187846354Y-79991837D01*
X187846350Y-79991837D01*
X187750692Y-80001762D01*
X187750688Y-80001763D01*
X187743834Y-80002474D01*
X187737298Y-80004655D01*
X187737296Y-80004655D01*
X187605194Y-80048728D01*
X187576054Y-80058450D01*
X187425652Y-80151522D01*
X187300695Y-80276697D01*
X187296855Y-80282927D01*
X187296854Y-80282928D01*
X187222466Y-80403608D01*
X187207885Y-80427262D01*
X187152203Y-80595139D01*
X187151503Y-80601975D01*
X187151502Y-80601978D01*
X187149884Y-80617768D01*
X187141500Y-80699600D01*
X187141500Y-82300400D01*
X167414521Y-82300400D01*
X167485032Y-82176529D01*
X167487675Y-82171886D01*
X167566337Y-81955175D01*
X167567287Y-81949923D01*
X167606623Y-81732392D01*
X167606624Y-81732385D01*
X167607361Y-81728308D01*
X167608500Y-81704156D01*
X167608500Y-81292110D01*
X167593920Y-81120280D01*
X167592582Y-81115125D01*
X167592581Y-81115119D01*
X167537343Y-80902297D01*
X167537342Y-80902293D01*
X167536001Y-80897128D01*
X167441312Y-80686925D01*
X167312559Y-80495681D01*
X167253918Y-80434209D01*
X167224725Y-80403608D01*
X167153424Y-80328865D01*
X166968458Y-80191246D01*
X166963707Y-80188830D01*
X166963703Y-80188828D01*
X166845588Y-80128776D01*
X166762949Y-80086760D01*
X166757855Y-80085178D01*
X166757852Y-80085177D01*
X166547871Y-80019976D01*
X166542773Y-80018393D01*
X166537484Y-80017692D01*
X166319511Y-79988802D01*
X166319506Y-79988802D01*
X166314226Y-79988102D01*
X166308897Y-79988302D01*
X166308895Y-79988302D01*
X166199034Y-79992426D01*
X166083842Y-79996751D01*
X166078623Y-79997846D01*
X166056566Y-80002474D01*
X165858209Y-80044093D01*
X165853250Y-80046051D01*
X165853248Y-80046052D01*
X165648744Y-80126815D01*
X165648742Y-80126816D01*
X165643779Y-80128776D01*
X165639220Y-80131543D01*
X165639217Y-80131544D01*
X165544113Y-80189255D01*
X165446683Y-80248377D01*
X165442653Y-80251874D01*
X165349484Y-80332722D01*
X165272555Y-80399477D01*
X165269168Y-80403608D01*
X165129760Y-80573627D01*
X165129756Y-80573633D01*
X165126376Y-80577755D01*
X165123733Y-80582398D01*
X165108171Y-80609735D01*
X165057088Y-80659041D01*
X164987458Y-80672902D01*
X164921387Y-80646918D01*
X164894149Y-80617768D01*
X164815148Y-80500422D01*
X164808481Y-80492130D01*
X164656772Y-80333100D01*
X164648814Y-80326059D01*
X164472475Y-80194859D01*
X164463438Y-80189255D01*
X164267516Y-80089643D01*
X164257665Y-80085643D01*
X164047760Y-80020466D01*
X164037376Y-80018183D01*
X164021957Y-80016139D01*
X164007793Y-80018335D01*
X164004000Y-80031522D01*
X164004000Y-82916192D01*
X163496000Y-82916192D01*
X163496000Y-80033808D01*
X163492027Y-80020277D01*
X163481420Y-80018752D01*
X163363579Y-80043477D01*
X163353383Y-80046537D01*
X163148971Y-80127263D01*
X163139439Y-80131994D01*
X162951538Y-80246016D01*
X162942948Y-80252280D01*
X162776948Y-80396327D01*
X162769528Y-80403958D01*
X162630174Y-80573911D01*
X162624152Y-80582674D01*
X162608762Y-80609711D01*
X162557680Y-80659018D01*
X162488049Y-80672880D01*
X162421978Y-80646897D01*
X162394739Y-80617747D01*
X162354696Y-80558270D01*
X162312559Y-80495681D01*
X162253918Y-80434209D01*
X162224725Y-80403608D01*
X162153424Y-80328865D01*
X161968458Y-80191246D01*
X161963707Y-80188830D01*
X161963703Y-80188828D01*
X161845588Y-80128776D01*
X161762949Y-80086760D01*
X161757855Y-80085178D01*
X161757852Y-80085177D01*
X161547871Y-80019976D01*
X161542773Y-80018393D01*
X161537484Y-80017692D01*
X161319511Y-79988802D01*
X161319506Y-79988802D01*
X161314226Y-79988102D01*
X161308897Y-79988302D01*
X161308895Y-79988302D01*
X161199034Y-79992426D01*
X161083842Y-79996751D01*
X160860073Y-80043702D01*
X160789298Y-80038115D01*
X160732777Y-79995150D01*
X160708458Y-79928448D01*
X160708200Y-79920387D01*
X160708200Y-56500000D01*
X196986685Y-56500000D01*
X197005931Y-56867241D01*
X197063459Y-57230459D01*
X197158639Y-57585674D01*
X197159824Y-57588762D01*
X197159825Y-57588764D01*
X197209902Y-57719218D01*
X197290427Y-57928994D01*
X197457380Y-58256657D01*
X197657668Y-58565075D01*
X197889098Y-58850867D01*
X198149133Y-59110902D01*
X198434925Y-59342332D01*
X198743342Y-59542620D01*
X198746276Y-59544115D01*
X198746283Y-59544119D01*
X199068066Y-59708075D01*
X199071006Y-59709573D01*
X199414326Y-59841361D01*
X199769541Y-59936541D01*
X199962558Y-59967112D01*
X200129511Y-59993555D01*
X200129519Y-59993556D01*
X200132759Y-59994069D01*
X200500000Y-60013315D01*
X200867241Y-59994069D01*
X200870481Y-59993556D01*
X200870489Y-59993555D01*
X201037442Y-59967112D01*
X201230459Y-59936541D01*
X201585674Y-59841361D01*
X201928994Y-59709573D01*
X201931934Y-59708075D01*
X202253717Y-59544119D01*
X202253724Y-59544115D01*
X202256658Y-59542620D01*
X202565075Y-59342332D01*
X202850867Y-59110902D01*
X203110902Y-58850867D01*
X203342332Y-58565075D01*
X203542620Y-58256657D01*
X203709573Y-57928994D01*
X203790098Y-57719218D01*
X203840175Y-57588764D01*
X203840176Y-57588762D01*
X203841361Y-57585674D01*
X203936541Y-57230459D01*
X203994069Y-56867241D01*
X204013315Y-56500000D01*
X203994069Y-56132759D01*
X203936541Y-55769541D01*
X203841361Y-55414326D01*
X203797365Y-55299711D01*
X203710757Y-55074091D01*
X203709573Y-55071006D01*
X203542620Y-54743343D01*
X203342332Y-54434925D01*
X203110902Y-54149133D01*
X202850867Y-53889098D01*
X202565075Y-53657668D01*
X202256658Y-53457380D01*
X202253724Y-53455885D01*
X202253717Y-53455881D01*
X201931934Y-53291925D01*
X201928994Y-53290427D01*
X201585674Y-53158639D01*
X201230459Y-53063459D01*
X201037442Y-53032888D01*
X200870489Y-53006445D01*
X200870481Y-53006444D01*
X200867241Y-53005931D01*
X200500000Y-52986685D01*
X200132759Y-53005931D01*
X200129519Y-53006444D01*
X200129511Y-53006445D01*
X199962558Y-53032888D01*
X199769541Y-53063459D01*
X199414326Y-53158639D01*
X199071006Y-53290427D01*
X199068066Y-53291925D01*
X198746284Y-53455881D01*
X198746277Y-53455885D01*
X198743343Y-53457380D01*
X198434925Y-53657668D01*
X198149133Y-53889098D01*
X197889098Y-54149133D01*
X197657668Y-54434925D01*
X197457380Y-54743343D01*
X197290427Y-55071006D01*
X197289243Y-55074091D01*
X197202636Y-55299711D01*
X197158639Y-55414326D01*
X197063459Y-55769541D01*
X197005931Y-56132759D01*
X196986685Y-56500000D01*
X160708200Y-56500000D01*
X160708200Y-50893156D01*
X160728202Y-50825035D01*
X160781858Y-50778542D01*
X160852132Y-50768438D01*
X160908261Y-50791220D01*
X160954803Y-50825035D01*
X160954806Y-50825036D01*
X160960148Y-50828918D01*
X160966176Y-50831602D01*
X160966178Y-50831603D01*
X161128581Y-50903909D01*
X161134612Y-50906594D01*
X161228013Y-50926447D01*
X161314956Y-50944928D01*
X161314961Y-50944928D01*
X161321413Y-50946300D01*
X161512387Y-50946300D01*
X161518839Y-50944928D01*
X161518844Y-50944928D01*
X161605787Y-50926447D01*
X161699188Y-50906594D01*
X161705219Y-50903909D01*
X161867622Y-50831603D01*
X161867624Y-50831602D01*
X161873652Y-50828918D01*
X161878997Y-50825035D01*
X161956895Y-50768438D01*
X162028153Y-50716666D01*
X162155940Y-50574744D01*
X162251427Y-50409356D01*
X162310442Y-50227728D01*
X162330404Y-50037800D01*
X162310442Y-49847872D01*
X162251427Y-49666244D01*
X162155940Y-49500856D01*
X162082763Y-49419585D01*
X162052047Y-49355579D01*
X162050400Y-49335276D01*
X162050400Y-48324471D01*
X196540884Y-48324471D01*
X196544570Y-48329740D01*
X196752121Y-48456927D01*
X196760915Y-48461408D01*
X196989242Y-48555984D01*
X196998627Y-48559033D01*
X197238940Y-48616728D01*
X197248687Y-48618271D01*
X197495070Y-48637662D01*
X197504930Y-48637662D01*
X197751313Y-48618271D01*
X197761060Y-48616728D01*
X198001373Y-48559033D01*
X198010758Y-48555984D01*
X198239085Y-48461408D01*
X198247879Y-48456927D01*
X198453928Y-48330660D01*
X198457968Y-48324471D01*
X201620884Y-48324471D01*
X201624570Y-48329740D01*
X201832121Y-48456927D01*
X201840915Y-48461408D01*
X202069242Y-48555984D01*
X202078627Y-48559033D01*
X202318940Y-48616728D01*
X202328687Y-48618271D01*
X202575070Y-48637662D01*
X202584930Y-48637662D01*
X202831313Y-48618271D01*
X202841060Y-48616728D01*
X203081373Y-48559033D01*
X203090758Y-48555984D01*
X203319085Y-48461408D01*
X203327879Y-48456927D01*
X203533928Y-48330660D01*
X203539190Y-48322599D01*
X203533183Y-48312393D01*
X202592812Y-47372022D01*
X202578868Y-47364408D01*
X202577035Y-47364539D01*
X202570420Y-47368790D01*
X201628276Y-48310934D01*
X201620884Y-48324471D01*
X198457968Y-48324471D01*
X198459190Y-48322599D01*
X198453183Y-48312393D01*
X197512812Y-47372022D01*
X197498868Y-47364408D01*
X197497035Y-47364539D01*
X197490420Y-47368790D01*
X196548276Y-48310934D01*
X196540884Y-48324471D01*
X162050400Y-48324471D01*
X162050400Y-47004930D01*
X195862338Y-47004930D01*
X195881729Y-47251313D01*
X195883272Y-47261060D01*
X195940967Y-47501373D01*
X195944016Y-47510758D01*
X196038592Y-47739085D01*
X196043073Y-47747879D01*
X196169340Y-47953928D01*
X196177401Y-47959190D01*
X196187607Y-47953183D01*
X197127978Y-47012812D01*
X197134356Y-47001132D01*
X197864408Y-47001132D01*
X197864539Y-47002965D01*
X197868790Y-47009580D01*
X198810934Y-47951724D01*
X198824471Y-47959116D01*
X198829740Y-47955430D01*
X198956927Y-47747879D01*
X198961408Y-47739085D01*
X199055984Y-47510758D01*
X199059033Y-47501373D01*
X199116728Y-47261060D01*
X199118271Y-47251313D01*
X199137662Y-47004930D01*
X200942338Y-47004930D01*
X200961729Y-47251313D01*
X200963272Y-47261060D01*
X201020967Y-47501373D01*
X201024016Y-47510758D01*
X201118592Y-47739085D01*
X201123073Y-47747879D01*
X201249340Y-47953928D01*
X201257401Y-47959190D01*
X201267607Y-47953183D01*
X202207978Y-47012812D01*
X202214356Y-47001132D01*
X202944408Y-47001132D01*
X202944539Y-47002965D01*
X202948790Y-47009580D01*
X203890934Y-47951724D01*
X203904471Y-47959116D01*
X203909740Y-47955430D01*
X204036927Y-47747879D01*
X204041408Y-47739085D01*
X204135984Y-47510758D01*
X204139033Y-47501373D01*
X204196728Y-47261060D01*
X204198271Y-47251313D01*
X204217662Y-47004930D01*
X204217662Y-46995070D01*
X204198271Y-46748687D01*
X204196728Y-46738940D01*
X204139033Y-46498627D01*
X204135984Y-46489242D01*
X204041408Y-46260915D01*
X204036927Y-46252121D01*
X203910660Y-46046072D01*
X203902599Y-46040810D01*
X203892393Y-46046817D01*
X202952022Y-46987188D01*
X202944408Y-47001132D01*
X202214356Y-47001132D01*
X202215592Y-46998868D01*
X202215461Y-46997035D01*
X202211210Y-46990420D01*
X201269066Y-46048276D01*
X201255529Y-46040884D01*
X201250260Y-46044570D01*
X201123073Y-46252121D01*
X201118592Y-46260915D01*
X201024016Y-46489242D01*
X201020967Y-46498627D01*
X200963272Y-46738940D01*
X200961729Y-46748687D01*
X200942338Y-46995070D01*
X200942338Y-47004930D01*
X199137662Y-47004930D01*
X199137662Y-46995070D01*
X199118271Y-46748687D01*
X199116728Y-46738940D01*
X199059033Y-46498627D01*
X199055984Y-46489242D01*
X198961408Y-46260915D01*
X198956927Y-46252121D01*
X198830660Y-46046072D01*
X198822599Y-46040810D01*
X198812393Y-46046817D01*
X197872022Y-46987188D01*
X197864408Y-47001132D01*
X197134356Y-47001132D01*
X197135592Y-46998868D01*
X197135461Y-46997035D01*
X197131210Y-46990420D01*
X196189066Y-46048276D01*
X196175529Y-46040884D01*
X196170260Y-46044570D01*
X196043073Y-46252121D01*
X196038592Y-46260915D01*
X195944016Y-46489242D01*
X195940967Y-46498627D01*
X195883272Y-46738940D01*
X195881729Y-46748687D01*
X195862338Y-46995070D01*
X195862338Y-47004930D01*
X162050400Y-47004930D01*
X162050400Y-46774694D01*
X162070402Y-46706573D01*
X162087305Y-46685599D01*
X163413960Y-45358944D01*
X163476272Y-45324918D01*
X163547087Y-45329983D01*
X163603923Y-45372530D01*
X163612173Y-45385037D01*
X163617158Y-45393671D01*
X163629960Y-45415844D01*
X163634378Y-45420751D01*
X163634379Y-45420752D01*
X163746032Y-45544755D01*
X163757747Y-45557766D01*
X163847169Y-45622735D01*
X163895758Y-45658037D01*
X163912248Y-45670018D01*
X163918276Y-45672702D01*
X163918278Y-45672703D01*
X164080681Y-45745009D01*
X164086712Y-45747694D01*
X164180112Y-45767547D01*
X164267056Y-45786028D01*
X164267061Y-45786028D01*
X164273513Y-45787400D01*
X164464487Y-45787400D01*
X164470939Y-45786028D01*
X164470944Y-45786028D01*
X164557887Y-45767547D01*
X164651288Y-45747694D01*
X164657319Y-45745009D01*
X164809170Y-45677401D01*
X196540810Y-45677401D01*
X196546817Y-45687607D01*
X197487188Y-46627978D01*
X197501132Y-46635592D01*
X197502965Y-46635461D01*
X197509580Y-46631210D01*
X198451724Y-45689066D01*
X198459116Y-45675529D01*
X198455430Y-45670260D01*
X198247879Y-45543073D01*
X198239085Y-45538592D01*
X198010758Y-45444016D01*
X198001373Y-45440967D01*
X197761060Y-45383272D01*
X197751313Y-45381729D01*
X197504930Y-45362338D01*
X197495070Y-45362338D01*
X197248687Y-45381729D01*
X197238940Y-45383272D01*
X196998627Y-45440967D01*
X196989242Y-45444016D01*
X196760915Y-45538592D01*
X196752121Y-45543073D01*
X196546072Y-45669340D01*
X196540810Y-45677401D01*
X164809170Y-45677401D01*
X164819722Y-45672703D01*
X164819724Y-45672702D01*
X164825752Y-45670018D01*
X164842243Y-45658037D01*
X164967449Y-45567069D01*
X164980253Y-45557766D01*
X164984668Y-45552863D01*
X164989580Y-45548440D01*
X164990705Y-45549689D01*
X165044014Y-45516849D01*
X165077200Y-45512400D01*
X170928133Y-45512400D01*
X170939316Y-45512927D01*
X170946809Y-45514602D01*
X170954735Y-45514353D01*
X170954736Y-45514353D01*
X171014886Y-45512462D01*
X171018845Y-45512400D01*
X171046756Y-45512400D01*
X171050691Y-45511903D01*
X171050756Y-45511895D01*
X171062593Y-45510962D01*
X171094851Y-45509948D01*
X171098870Y-45509822D01*
X171106789Y-45509573D01*
X171126243Y-45503921D01*
X171145600Y-45499913D01*
X171157830Y-45498368D01*
X171157831Y-45498368D01*
X171165697Y-45497374D01*
X171173068Y-45494455D01*
X171173070Y-45494455D01*
X171206812Y-45481096D01*
X171218042Y-45477251D01*
X171252883Y-45467129D01*
X171252884Y-45467129D01*
X171260493Y-45464918D01*
X171267312Y-45460885D01*
X171267317Y-45460883D01*
X171277928Y-45454607D01*
X171295676Y-45445912D01*
X171314517Y-45438452D01*
X171350287Y-45412464D01*
X171360207Y-45405948D01*
X171391435Y-45387480D01*
X171391438Y-45387478D01*
X171398262Y-45383442D01*
X171412583Y-45369121D01*
X171427617Y-45356280D01*
X171437594Y-45349031D01*
X171444007Y-45344372D01*
X171472198Y-45310295D01*
X171480188Y-45301516D01*
X172321704Y-44460000D01*
X198501758Y-44460000D01*
X198520696Y-44700634D01*
X198521850Y-44705441D01*
X198521851Y-44705447D01*
X198543894Y-44797262D01*
X198577045Y-44935343D01*
X198578938Y-44939914D01*
X198578939Y-44939916D01*
X198659991Y-45135592D01*
X198669416Y-45158347D01*
X198795536Y-45364156D01*
X198952299Y-45547701D01*
X198956055Y-45550909D01*
X198959141Y-45553545D01*
X199135844Y-45704464D01*
X199341653Y-45830584D01*
X199346223Y-45832477D01*
X199346227Y-45832479D01*
X199560084Y-45921061D01*
X199564657Y-45922955D01*
X199640090Y-45941065D01*
X199794553Y-45978149D01*
X199794559Y-45978150D01*
X199799366Y-45979304D01*
X200040000Y-45998242D01*
X200280634Y-45979304D01*
X200285441Y-45978150D01*
X200285447Y-45978149D01*
X200439910Y-45941065D01*
X200515343Y-45922955D01*
X200519916Y-45921061D01*
X200733773Y-45832479D01*
X200733777Y-45832477D01*
X200738347Y-45830584D01*
X200944156Y-45704464D01*
X200975843Y-45677401D01*
X201620810Y-45677401D01*
X201626817Y-45687607D01*
X202567188Y-46627978D01*
X202581132Y-46635592D01*
X202582965Y-46635461D01*
X202589580Y-46631210D01*
X203531724Y-45689066D01*
X203539116Y-45675529D01*
X203535430Y-45670260D01*
X203327879Y-45543073D01*
X203319085Y-45538592D01*
X203090758Y-45444016D01*
X203081373Y-45440967D01*
X202841060Y-45383272D01*
X202831313Y-45381729D01*
X202584930Y-45362338D01*
X202575070Y-45362338D01*
X202328687Y-45381729D01*
X202318940Y-45383272D01*
X202078627Y-45440967D01*
X202069242Y-45444016D01*
X201840915Y-45538592D01*
X201832121Y-45543073D01*
X201626072Y-45669340D01*
X201620810Y-45677401D01*
X200975843Y-45677401D01*
X201120859Y-45553545D01*
X201123945Y-45550909D01*
X201127701Y-45547701D01*
X201284464Y-45364156D01*
X201410584Y-45158347D01*
X201420010Y-45135592D01*
X201501061Y-44939916D01*
X201501062Y-44939914D01*
X201502955Y-44935343D01*
X201536106Y-44797262D01*
X201558149Y-44705447D01*
X201558150Y-44705441D01*
X201559304Y-44700634D01*
X201578242Y-44460000D01*
X201559304Y-44219366D01*
X201558150Y-44214559D01*
X201558149Y-44214553D01*
X201504110Y-43989469D01*
X201502955Y-43984657D01*
X201495276Y-43966118D01*
X201412479Y-43766227D01*
X201412477Y-43766223D01*
X201410584Y-43761653D01*
X201284464Y-43555844D01*
X201127701Y-43372299D01*
X200978034Y-43244471D01*
X201620884Y-43244471D01*
X201624570Y-43249740D01*
X201832121Y-43376927D01*
X201840915Y-43381408D01*
X202069242Y-43475984D01*
X202078627Y-43479033D01*
X202318940Y-43536728D01*
X202328687Y-43538271D01*
X202575070Y-43557662D01*
X202584930Y-43557662D01*
X202831313Y-43538271D01*
X202841060Y-43536728D01*
X203081373Y-43479033D01*
X203090758Y-43475984D01*
X203319085Y-43381408D01*
X203327879Y-43376927D01*
X203533928Y-43250660D01*
X203539190Y-43242599D01*
X203533183Y-43232393D01*
X202592812Y-42292022D01*
X202578868Y-42284408D01*
X202577035Y-42284539D01*
X202570420Y-42288790D01*
X201628276Y-43230934D01*
X201620884Y-43244471D01*
X200978034Y-43244471D01*
X200944156Y-43215536D01*
X200738347Y-43089416D01*
X200733777Y-43087523D01*
X200733773Y-43087521D01*
X200519916Y-42998939D01*
X200519914Y-42998938D01*
X200515343Y-42997045D01*
X200432961Y-42977267D01*
X200285447Y-42941851D01*
X200285441Y-42941850D01*
X200280634Y-42940696D01*
X200040000Y-42921758D01*
X199799366Y-42940696D01*
X199794559Y-42941850D01*
X199794553Y-42941851D01*
X199647039Y-42977267D01*
X199564657Y-42997045D01*
X199560086Y-42998938D01*
X199560084Y-42998939D01*
X199346227Y-43087521D01*
X199346223Y-43087523D01*
X199341653Y-43089416D01*
X199135844Y-43215536D01*
X198952299Y-43372299D01*
X198795536Y-43555844D01*
X198669416Y-43761653D01*
X198667523Y-43766223D01*
X198667521Y-43766227D01*
X198584724Y-43966118D01*
X198577045Y-43984657D01*
X198575890Y-43989469D01*
X198521851Y-44214553D01*
X198521850Y-44214559D01*
X198520696Y-44219366D01*
X198501758Y-44460000D01*
X172321704Y-44460000D01*
X173537233Y-43244471D01*
X196540884Y-43244471D01*
X196544570Y-43249740D01*
X196752121Y-43376927D01*
X196760915Y-43381408D01*
X196989242Y-43475984D01*
X196998627Y-43479033D01*
X197238940Y-43536728D01*
X197248687Y-43538271D01*
X197495070Y-43557662D01*
X197504930Y-43557662D01*
X197751313Y-43538271D01*
X197761060Y-43536728D01*
X198001373Y-43479033D01*
X198010758Y-43475984D01*
X198239085Y-43381408D01*
X198247879Y-43376927D01*
X198453928Y-43250660D01*
X198459190Y-43242599D01*
X198453183Y-43232393D01*
X197512812Y-42292022D01*
X197498868Y-42284408D01*
X197497035Y-42284539D01*
X197490420Y-42288790D01*
X196548276Y-43230934D01*
X196540884Y-43244471D01*
X173537233Y-43244471D01*
X174856774Y-41924930D01*
X195862338Y-41924930D01*
X195881729Y-42171313D01*
X195883272Y-42181060D01*
X195940967Y-42421373D01*
X195944016Y-42430758D01*
X196038592Y-42659085D01*
X196043073Y-42667879D01*
X196169340Y-42873928D01*
X196177401Y-42879190D01*
X196187607Y-42873183D01*
X197127978Y-41932812D01*
X197134356Y-41921132D01*
X197864408Y-41921132D01*
X197864539Y-41922965D01*
X197868790Y-41929580D01*
X198810934Y-42871724D01*
X198824471Y-42879116D01*
X198829740Y-42875430D01*
X198956927Y-42667879D01*
X198961408Y-42659085D01*
X199055984Y-42430758D01*
X199059033Y-42421373D01*
X199116728Y-42181060D01*
X199118271Y-42171313D01*
X199137662Y-41924930D01*
X200942338Y-41924930D01*
X200961729Y-42171313D01*
X200963272Y-42181060D01*
X201020967Y-42421373D01*
X201024016Y-42430758D01*
X201118592Y-42659085D01*
X201123073Y-42667879D01*
X201249340Y-42873928D01*
X201257401Y-42879190D01*
X201267607Y-42873183D01*
X202207978Y-41932812D01*
X202214356Y-41921132D01*
X202944408Y-41921132D01*
X202944539Y-41922965D01*
X202948790Y-41929580D01*
X203890934Y-42871724D01*
X203904471Y-42879116D01*
X203909740Y-42875430D01*
X204036927Y-42667879D01*
X204041408Y-42659085D01*
X204135984Y-42430758D01*
X204139033Y-42421373D01*
X204196728Y-42181060D01*
X204198271Y-42171313D01*
X204217662Y-41924930D01*
X204217662Y-41915070D01*
X204198271Y-41668687D01*
X204196728Y-41658940D01*
X204139033Y-41418627D01*
X204135984Y-41409242D01*
X204041408Y-41180915D01*
X204036927Y-41172121D01*
X203910660Y-40966072D01*
X203902599Y-40960810D01*
X203892393Y-40966817D01*
X202952022Y-41907188D01*
X202944408Y-41921132D01*
X202214356Y-41921132D01*
X202215592Y-41918868D01*
X202215461Y-41917035D01*
X202211210Y-41910420D01*
X201269066Y-40968276D01*
X201255529Y-40960884D01*
X201250260Y-40964570D01*
X201123073Y-41172121D01*
X201118592Y-41180915D01*
X201024016Y-41409242D01*
X201020967Y-41418627D01*
X200963272Y-41658940D01*
X200961729Y-41668687D01*
X200942338Y-41915070D01*
X200942338Y-41924930D01*
X199137662Y-41924930D01*
X199137662Y-41915070D01*
X199118271Y-41668687D01*
X199116728Y-41658940D01*
X199059033Y-41418627D01*
X199055984Y-41409242D01*
X198961408Y-41180915D01*
X198956927Y-41172121D01*
X198830660Y-40966072D01*
X198822599Y-40960810D01*
X198812393Y-40966817D01*
X197872022Y-41907188D01*
X197864408Y-41921132D01*
X197134356Y-41921132D01*
X197135592Y-41918868D01*
X197135461Y-41917035D01*
X197131210Y-41910420D01*
X196189066Y-40968276D01*
X196175529Y-40960884D01*
X196170260Y-40964570D01*
X196043073Y-41172121D01*
X196038592Y-41180915D01*
X195944016Y-41409242D01*
X195940967Y-41418627D01*
X195883272Y-41658940D01*
X195881729Y-41668687D01*
X195862338Y-41915070D01*
X195862338Y-41924930D01*
X174856774Y-41924930D01*
X176184303Y-40597401D01*
X196540810Y-40597401D01*
X196546817Y-40607607D01*
X197487188Y-41547978D01*
X197501132Y-41555592D01*
X197502965Y-41555461D01*
X197509580Y-41551210D01*
X198451724Y-40609066D01*
X198458094Y-40597401D01*
X201620810Y-40597401D01*
X201626817Y-40607607D01*
X202567188Y-41547978D01*
X202581132Y-41555592D01*
X202582965Y-41555461D01*
X202589580Y-41551210D01*
X203531724Y-40609066D01*
X203539116Y-40595529D01*
X203535430Y-40590260D01*
X203327879Y-40463073D01*
X203319085Y-40458592D01*
X203090758Y-40364016D01*
X203081373Y-40360967D01*
X202841060Y-40303272D01*
X202831313Y-40301729D01*
X202584930Y-40282338D01*
X202575070Y-40282338D01*
X202328687Y-40301729D01*
X202318940Y-40303272D01*
X202078627Y-40360967D01*
X202069242Y-40364016D01*
X201840915Y-40458592D01*
X201832121Y-40463073D01*
X201626072Y-40589340D01*
X201620810Y-40597401D01*
X198458094Y-40597401D01*
X198459116Y-40595529D01*
X198455430Y-40590260D01*
X198247879Y-40463073D01*
X198239085Y-40458592D01*
X198010758Y-40364016D01*
X198001373Y-40360967D01*
X197761060Y-40303272D01*
X197751313Y-40301729D01*
X197504930Y-40282338D01*
X197495070Y-40282338D01*
X197248687Y-40301729D01*
X197238940Y-40303272D01*
X196998627Y-40360967D01*
X196989242Y-40364016D01*
X196760915Y-40458592D01*
X196752121Y-40463073D01*
X196546072Y-40589340D01*
X196540810Y-40597401D01*
X176184303Y-40597401D01*
X176344099Y-40437605D01*
X176406411Y-40403579D01*
X176433194Y-40400700D01*
X176489087Y-40400700D01*
X176495539Y-40399328D01*
X176495544Y-40399328D01*
X176582487Y-40380847D01*
X176675888Y-40360994D01*
X176681919Y-40358309D01*
X176844322Y-40286003D01*
X176844324Y-40286002D01*
X176850352Y-40283318D01*
X177004853Y-40171066D01*
X177036912Y-40135461D01*
X177128221Y-40034052D01*
X177128222Y-40034051D01*
X177132640Y-40029144D01*
X177201396Y-39910055D01*
X177224823Y-39869479D01*
X177224824Y-39869478D01*
X177228127Y-39863756D01*
X177287142Y-39682128D01*
X177288877Y-39665626D01*
X177306414Y-39498765D01*
X177307104Y-39492200D01*
X177304507Y-39467492D01*
X177287832Y-39308835D01*
X177287832Y-39308833D01*
X177287142Y-39302272D01*
X177228127Y-39120644D01*
X177132640Y-38955256D01*
X177004853Y-38813334D01*
X176850352Y-38701082D01*
X176844324Y-38698398D01*
X176844322Y-38698397D01*
X176681919Y-38626091D01*
X176681918Y-38626091D01*
X176675888Y-38623406D01*
X176582488Y-38603553D01*
X176495544Y-38585072D01*
X176495539Y-38585072D01*
X176489087Y-38583700D01*
X176298113Y-38583700D01*
X176291661Y-38585072D01*
X176291656Y-38585072D01*
X176204712Y-38603553D01*
X176111312Y-38623406D01*
X176105282Y-38626091D01*
X176105281Y-38626091D01*
X175942878Y-38698397D01*
X175942876Y-38698398D01*
X175936848Y-38701082D01*
X175782347Y-38813334D01*
X175654560Y-38955256D01*
X175559073Y-39120644D01*
X175500058Y-39302272D01*
X175499368Y-39308833D01*
X175499368Y-39308835D01*
X175491772Y-39381106D01*
X175483201Y-39462663D01*
X175482693Y-39467492D01*
X175455680Y-39533149D01*
X175446478Y-39543417D01*
X170781400Y-44208495D01*
X170719088Y-44242521D01*
X170692305Y-44245400D01*
X165077200Y-44245400D01*
X165009079Y-44225398D01*
X164989853Y-44209057D01*
X164989580Y-44209360D01*
X164984668Y-44204937D01*
X164980253Y-44200034D01*
X164863650Y-44115317D01*
X164820297Y-44059096D01*
X164814222Y-43988360D01*
X164848617Y-43924287D01*
X173327499Y-35445405D01*
X173389811Y-35411379D01*
X173416594Y-35408500D01*
X173472487Y-35408500D01*
X173478939Y-35407128D01*
X173478944Y-35407128D01*
X173565888Y-35388647D01*
X173659288Y-35368794D01*
X173802483Y-35305040D01*
X173827722Y-35293803D01*
X173827724Y-35293802D01*
X173833752Y-35291118D01*
X173988253Y-35178866D01*
X174000937Y-35164779D01*
X174111621Y-35041852D01*
X174111622Y-35041851D01*
X174116040Y-35036944D01*
X174211527Y-34871556D01*
X174270542Y-34689928D01*
X174290504Y-34500000D01*
X174275433Y-34356603D01*
X174271232Y-34316635D01*
X174271232Y-34316633D01*
X174270542Y-34310072D01*
X174211527Y-34128444D01*
X174116040Y-33963056D01*
X174095352Y-33940079D01*
X173992675Y-33826045D01*
X173992674Y-33826044D01*
X173988253Y-33821134D01*
X173833752Y-33708882D01*
X173827724Y-33706198D01*
X173827722Y-33706197D01*
X173665319Y-33633891D01*
X173665318Y-33633891D01*
X173659288Y-33631206D01*
X173565887Y-33611353D01*
X173478944Y-33592872D01*
X173478939Y-33592872D01*
X173472487Y-33591500D01*
X173281513Y-33591500D01*
X173275061Y-33592872D01*
X173275056Y-33592872D01*
X173188113Y-33611353D01*
X173094712Y-33631206D01*
X173088682Y-33633891D01*
X173088681Y-33633891D01*
X172926278Y-33706197D01*
X172926276Y-33706198D01*
X172920248Y-33708882D01*
X172765747Y-33821134D01*
X172761326Y-33826044D01*
X172761325Y-33826045D01*
X172658649Y-33940079D01*
X172637960Y-33963056D01*
X172542473Y-34128444D01*
X172483458Y-34310072D01*
X172482768Y-34316633D01*
X172482768Y-34316635D01*
X172478850Y-34353918D01*
X172466513Y-34471300D01*
X172466093Y-34475293D01*
X172439080Y-34540950D01*
X172429878Y-34551218D01*
X166724630Y-40256465D01*
X161024647Y-45956448D01*
X161016361Y-45963988D01*
X161009882Y-45968100D01*
X161004457Y-45973877D01*
X160963257Y-46017751D01*
X160960502Y-46020593D01*
X160940765Y-46040330D01*
X160938285Y-46043527D01*
X160930580Y-46052549D01*
X160926050Y-46057373D01*
X160864838Y-46093338D01*
X160793898Y-46090501D01*
X160735754Y-46049760D01*
X160708865Y-45984052D01*
X160708200Y-45971120D01*
X160708200Y-43923894D01*
X160728202Y-43855773D01*
X160745105Y-43834799D01*
X163384600Y-41195305D01*
X163446912Y-41161279D01*
X163473695Y-41158400D01*
X163529587Y-41158400D01*
X163536039Y-41157028D01*
X163536044Y-41157028D01*
X163622988Y-41138547D01*
X163716388Y-41118694D01*
X163722419Y-41116009D01*
X163884822Y-41043703D01*
X163884824Y-41043702D01*
X163890852Y-41041018D01*
X164045353Y-40928766D01*
X164055036Y-40918012D01*
X164168721Y-40791752D01*
X164168722Y-40791751D01*
X164173140Y-40786844D01*
X164257017Y-40641565D01*
X164265323Y-40627179D01*
X164265324Y-40627178D01*
X164268627Y-40621456D01*
X164327642Y-40439828D01*
X164331535Y-40402794D01*
X164346914Y-40256465D01*
X164347604Y-40249900D01*
X164344713Y-40222397D01*
X164328332Y-40066535D01*
X164328332Y-40066533D01*
X164327642Y-40059972D01*
X164268627Y-39878344D01*
X164254076Y-39853140D01*
X164212887Y-39781799D01*
X164173140Y-39712956D01*
X164145383Y-39682128D01*
X164049775Y-39575945D01*
X164049774Y-39575944D01*
X164045353Y-39571034D01*
X163902840Y-39467492D01*
X163896194Y-39462663D01*
X163896193Y-39462662D01*
X163890852Y-39458782D01*
X163884824Y-39456098D01*
X163884822Y-39456097D01*
X163722419Y-39383791D01*
X163722418Y-39383791D01*
X163716388Y-39381106D01*
X163622987Y-39361253D01*
X163536044Y-39342772D01*
X163536039Y-39342772D01*
X163529587Y-39341400D01*
X163338613Y-39341400D01*
X163332161Y-39342772D01*
X163332156Y-39342772D01*
X163245212Y-39361253D01*
X163151812Y-39381106D01*
X163145782Y-39383791D01*
X163145781Y-39383791D01*
X162983378Y-39456097D01*
X162983376Y-39456098D01*
X162977348Y-39458782D01*
X162972007Y-39462662D01*
X162972006Y-39462663D01*
X162965360Y-39467492D01*
X162822847Y-39571034D01*
X162818426Y-39575944D01*
X162818425Y-39575945D01*
X162722818Y-39682128D01*
X162695060Y-39712956D01*
X162655313Y-39781799D01*
X162614125Y-39853140D01*
X162599573Y-39878344D01*
X162540558Y-40059972D01*
X162523353Y-40223674D01*
X162523193Y-40225193D01*
X162496180Y-40290850D01*
X162486978Y-40301118D01*
X159682447Y-43105648D01*
X159674161Y-43113188D01*
X159667682Y-43117300D01*
X159662257Y-43123077D01*
X159621057Y-43166951D01*
X159618302Y-43169793D01*
X159598595Y-43189500D01*
X159536283Y-43223526D01*
X159465468Y-43218461D01*
X159408632Y-43175914D01*
X159383821Y-43109394D01*
X159383500Y-43100405D01*
X159383500Y-38516394D01*
X159403502Y-38448273D01*
X159420405Y-38427299D01*
X159989299Y-37858405D01*
X160051611Y-37824379D01*
X160078394Y-37821500D01*
X160134287Y-37821500D01*
X160140739Y-37820128D01*
X160140744Y-37820128D01*
X160227687Y-37801647D01*
X160321088Y-37781794D01*
X160327119Y-37779109D01*
X160489522Y-37706803D01*
X160489524Y-37706802D01*
X160495552Y-37704118D01*
X160529995Y-37679094D01*
X160574030Y-37647100D01*
X160650053Y-37591866D01*
X160714864Y-37519886D01*
X160773421Y-37454852D01*
X160773422Y-37454851D01*
X160777840Y-37449944D01*
X160854566Y-37317051D01*
X160870023Y-37290279D01*
X160870024Y-37290278D01*
X160873327Y-37284556D01*
X160932342Y-37102928D01*
X160933818Y-37088891D01*
X160951614Y-36919565D01*
X160952304Y-36913000D01*
X160949624Y-36887504D01*
X160933032Y-36729635D01*
X160933032Y-36729633D01*
X160932342Y-36723072D01*
X160873327Y-36541444D01*
X160863030Y-36523608D01*
X160781141Y-36381774D01*
X160777840Y-36376056D01*
X160764575Y-36361323D01*
X160654475Y-36239045D01*
X160654474Y-36239044D01*
X160650053Y-36234134D01*
X160495552Y-36121882D01*
X160489524Y-36119198D01*
X160489522Y-36119197D01*
X160327119Y-36046891D01*
X160327118Y-36046891D01*
X160321088Y-36044206D01*
X160227687Y-36024353D01*
X160140744Y-36005872D01*
X160140739Y-36005872D01*
X160134287Y-36004500D01*
X159943313Y-36004500D01*
X159936861Y-36005872D01*
X159936856Y-36005872D01*
X159849912Y-36024353D01*
X159756512Y-36044206D01*
X159750482Y-36046891D01*
X159750481Y-36046891D01*
X159588078Y-36119197D01*
X159588076Y-36119198D01*
X159582048Y-36121882D01*
X159427547Y-36234134D01*
X159423126Y-36239044D01*
X159423125Y-36239045D01*
X159313026Y-36361323D01*
X159299760Y-36376056D01*
X159296459Y-36381774D01*
X159214571Y-36523608D01*
X159204273Y-36541444D01*
X159145258Y-36723072D01*
X159144568Y-36729633D01*
X159144568Y-36729635D01*
X159127893Y-36888292D01*
X159100880Y-36953949D01*
X159091678Y-36964217D01*
X158357747Y-37698148D01*
X158349461Y-37705688D01*
X158342982Y-37709800D01*
X158337557Y-37715577D01*
X158296357Y-37759451D01*
X158293602Y-37762293D01*
X158273865Y-37782030D01*
X158271385Y-37785227D01*
X158263682Y-37794247D01*
X158233414Y-37826479D01*
X158229595Y-37833425D01*
X158229593Y-37833428D01*
X158223652Y-37844234D01*
X158212801Y-37860753D01*
X158200386Y-37876759D01*
X158197241Y-37884028D01*
X158197238Y-37884032D01*
X158182826Y-37917337D01*
X158177609Y-37927987D01*
X158156305Y-37966740D01*
X158154334Y-37974415D01*
X158154334Y-37974416D01*
X158151267Y-37986362D01*
X158144863Y-38005066D01*
X158136819Y-38023655D01*
X158135580Y-38031478D01*
X158135577Y-38031488D01*
X158129901Y-38067324D01*
X158127495Y-38078944D01*
X158116500Y-38121770D01*
X158116500Y-38142024D01*
X158114949Y-38161734D01*
X158111780Y-38181743D01*
X158112526Y-38189635D01*
X158115941Y-38225761D01*
X158116500Y-38237619D01*
X158116500Y-44682648D01*
X158096498Y-44750769D01*
X158042842Y-44797262D01*
X157972568Y-44807366D01*
X157939251Y-44797755D01*
X157861619Y-44763191D01*
X157861618Y-44763191D01*
X157855588Y-44760506D01*
X157762187Y-44740653D01*
X157675244Y-44722172D01*
X157675239Y-44722172D01*
X157668787Y-44720800D01*
X157477813Y-44720800D01*
X157471361Y-44722172D01*
X157471356Y-44722172D01*
X157384412Y-44740653D01*
X157291012Y-44760506D01*
X157284982Y-44763191D01*
X157284981Y-44763191D01*
X157122578Y-44835497D01*
X157122576Y-44835498D01*
X157116548Y-44838182D01*
X156962047Y-44950434D01*
X156834260Y-45092356D01*
X156738773Y-45257744D01*
X156679758Y-45439372D01*
X156679068Y-45445933D01*
X156679068Y-45445935D01*
X156668295Y-45548440D01*
X156659796Y-45629300D01*
X156660486Y-45635865D01*
X156676676Y-45789901D01*
X156679758Y-45819228D01*
X156738773Y-46000856D01*
X156742076Y-46006578D01*
X156742077Y-46006579D01*
X156765309Y-46046817D01*
X156834260Y-46166244D01*
X156907437Y-46247515D01*
X156938153Y-46311521D01*
X156939800Y-46331824D01*
X156939800Y-66281005D01*
X156919798Y-66349126D01*
X156902895Y-66370100D01*
X156097795Y-67175200D01*
X156035483Y-67209226D01*
X155964668Y-67204161D01*
X155907832Y-67161614D01*
X155883021Y-67095094D01*
X155882700Y-67086105D01*
X155882700Y-46781924D01*
X155902702Y-46713803D01*
X155915058Y-46697621D01*
X155988240Y-46616344D01*
X156083727Y-46450956D01*
X156142742Y-46269328D01*
X156145370Y-46244329D01*
X156162014Y-46085965D01*
X156162704Y-46079400D01*
X156152683Y-45984052D01*
X156143432Y-45896035D01*
X156143432Y-45896033D01*
X156142742Y-45889472D01*
X156083727Y-45707844D01*
X156072886Y-45689066D01*
X156039164Y-45630658D01*
X155988240Y-45542456D01*
X155965184Y-45516849D01*
X155864875Y-45405445D01*
X155864874Y-45405444D01*
X155860453Y-45400534D01*
X155705952Y-45288282D01*
X155699924Y-45285598D01*
X155699922Y-45285597D01*
X155537519Y-45213291D01*
X155537518Y-45213291D01*
X155531488Y-45210606D01*
X155438087Y-45190753D01*
X155351144Y-45172272D01*
X155351139Y-45172272D01*
X155344687Y-45170900D01*
X155153713Y-45170900D01*
X155147261Y-45172272D01*
X155147256Y-45172272D01*
X155060313Y-45190753D01*
X154966912Y-45210606D01*
X154960882Y-45213291D01*
X154960881Y-45213291D01*
X154798478Y-45285597D01*
X154798476Y-45285598D01*
X154792448Y-45288282D01*
X154637947Y-45400534D01*
X154633526Y-45405444D01*
X154633525Y-45405445D01*
X154533217Y-45516849D01*
X154510160Y-45542456D01*
X154459236Y-45630658D01*
X154425515Y-45689066D01*
X154414673Y-45707844D01*
X154355658Y-45889472D01*
X154354968Y-45896033D01*
X154354968Y-45896035D01*
X154345717Y-45984052D01*
X154335696Y-46079400D01*
X154336386Y-46085965D01*
X154353031Y-46244329D01*
X154355658Y-46269328D01*
X154414673Y-46450956D01*
X154510160Y-46616344D01*
X154583337Y-46697615D01*
X154614053Y-46761621D01*
X154615700Y-46781924D01*
X154615700Y-67968206D01*
X154595698Y-68036327D01*
X154578795Y-68057301D01*
X142228066Y-80408029D01*
X142165754Y-80442055D01*
X142094939Y-80436990D01*
X142038103Y-80394443D01*
X142024089Y-80370684D01*
X141967930Y-80246016D01*
X141941312Y-80186925D01*
X141812559Y-79995681D01*
X141763511Y-79944265D01*
X141725059Y-79903958D01*
X141653424Y-79828865D01*
X141468458Y-79691246D01*
X141463707Y-79688830D01*
X141463703Y-79688828D01*
X141345588Y-79628776D01*
X141262949Y-79586760D01*
X141257855Y-79585178D01*
X141257852Y-79585177D01*
X141047871Y-79519976D01*
X141042773Y-79518393D01*
X141037484Y-79517692D01*
X140819511Y-79488802D01*
X140819506Y-79488802D01*
X140814226Y-79488102D01*
X140808897Y-79488302D01*
X140808895Y-79488302D01*
X140699034Y-79492426D01*
X140583842Y-79496751D01*
X140360073Y-79543702D01*
X140289298Y-79538115D01*
X140232777Y-79495150D01*
X140208458Y-79428448D01*
X140208200Y-79420387D01*
X140208200Y-52121967D01*
X140208727Y-52110784D01*
X140210402Y-52103291D01*
X140208262Y-52035214D01*
X140208200Y-52031255D01*
X140208200Y-52003344D01*
X140207695Y-51999344D01*
X140206762Y-51987501D01*
X140205622Y-51951230D01*
X140205373Y-51943311D01*
X140199721Y-51923857D01*
X140195713Y-51904500D01*
X140194168Y-51892270D01*
X140194168Y-51892269D01*
X140193174Y-51884403D01*
X140190255Y-51877030D01*
X140176896Y-51843288D01*
X140173051Y-51832058D01*
X140162929Y-51797217D01*
X140162929Y-51797216D01*
X140160718Y-51789607D01*
X140156685Y-51782788D01*
X140156683Y-51782783D01*
X140150407Y-51772172D01*
X140141712Y-51754424D01*
X140134252Y-51735583D01*
X140108264Y-51699813D01*
X140101748Y-51689893D01*
X140083280Y-51658665D01*
X140083278Y-51658662D01*
X140079242Y-51651838D01*
X140064921Y-51637517D01*
X140052080Y-51622483D01*
X140044831Y-51612506D01*
X140040172Y-51606093D01*
X140006095Y-51577902D01*
X139997316Y-51569912D01*
X132996500Y-44569095D01*
X132962474Y-44506783D01*
X132967539Y-44435968D01*
X132996500Y-44390904D01*
X133659622Y-43727783D01*
X133721934Y-43693758D01*
X133792750Y-43698823D01*
X133825379Y-43716885D01*
X133825409Y-43716908D01*
X133832072Y-43722388D01*
X133854324Y-43742006D01*
X133874190Y-43759520D01*
X133881254Y-43763119D01*
X133881255Y-43763120D01*
X133881529Y-43763260D01*
X133901550Y-43775966D01*
X133901790Y-43776152D01*
X133901794Y-43776154D01*
X133908059Y-43781014D01*
X133959173Y-43803133D01*
X133959607Y-43803321D01*
X133966742Y-43806678D01*
X134016804Y-43832185D01*
X134024849Y-43833983D01*
X134047394Y-43841309D01*
X134054955Y-43844581D01*
X134082571Y-43848955D01*
X134110426Y-43853367D01*
X134118201Y-43854851D01*
X134140235Y-43859776D01*
X134173009Y-43867102D01*
X134180932Y-43866853D01*
X134180933Y-43866853D01*
X134180994Y-43866851D01*
X134181244Y-43866843D01*
X134204915Y-43868333D01*
X134205211Y-43868380D01*
X134205214Y-43868380D01*
X134213043Y-43869620D01*
X134220935Y-43868874D01*
X134220936Y-43868874D01*
X134268958Y-43864335D01*
X134276855Y-43863838D01*
X134310072Y-43862793D01*
X134332989Y-43862073D01*
X134340898Y-43859775D01*
X134364194Y-43855332D01*
X134364504Y-43855303D01*
X134364507Y-43855302D01*
X134372392Y-43854557D01*
X134425244Y-43835529D01*
X134432773Y-43833083D01*
X134479081Y-43819630D01*
X134479085Y-43819628D01*
X134486693Y-43817418D01*
X134493516Y-43813383D01*
X134493520Y-43813381D01*
X134493788Y-43813223D01*
X134515232Y-43803133D01*
X134515523Y-43803028D01*
X134515531Y-43803024D01*
X134522989Y-43800339D01*
X134569465Y-43768754D01*
X134576096Y-43764545D01*
X134624462Y-43735942D01*
X134630282Y-43730122D01*
X134648553Y-43715006D01*
X134648810Y-43714831D01*
X134655371Y-43710372D01*
X134670896Y-43692763D01*
X134692518Y-43668237D01*
X134697937Y-43662467D01*
X135925321Y-42435083D01*
X135987633Y-42401057D01*
X136058448Y-42406122D01*
X136107743Y-42443580D01*
X136109560Y-42441944D01*
X136220355Y-42564994D01*
X136237347Y-42583866D01*
X136297310Y-42627432D01*
X136340664Y-42683655D01*
X136346739Y-42754391D01*
X136332368Y-42792368D01*
X136325973Y-42803444D01*
X136266958Y-42985072D01*
X136266268Y-42991633D01*
X136266268Y-42991635D01*
X136251436Y-43132756D01*
X136246996Y-43175000D01*
X136247686Y-43181565D01*
X136255974Y-43260417D01*
X136266958Y-43364928D01*
X136325973Y-43546556D01*
X136329276Y-43552278D01*
X136329277Y-43552279D01*
X136350618Y-43589243D01*
X136421460Y-43711944D01*
X136425878Y-43716851D01*
X136425879Y-43716852D01*
X136531530Y-43834189D01*
X136549247Y-43853866D01*
X136703748Y-43966118D01*
X136709776Y-43968802D01*
X136709778Y-43968803D01*
X136818058Y-44017012D01*
X136878212Y-44043794D01*
X136950202Y-44059096D01*
X137058556Y-44082128D01*
X137058561Y-44082128D01*
X137065013Y-44083500D01*
X137255987Y-44083500D01*
X137262439Y-44082128D01*
X137262444Y-44082128D01*
X137370798Y-44059096D01*
X137442788Y-44043794D01*
X137502942Y-44017012D01*
X137611222Y-43968803D01*
X137611224Y-43968802D01*
X137617252Y-43966118D01*
X137771753Y-43853866D01*
X137776168Y-43848963D01*
X137781080Y-43844540D01*
X137782205Y-43845789D01*
X137835514Y-43812949D01*
X137868700Y-43808500D01*
X141799849Y-43808500D01*
X141867970Y-43828502D01*
X141914463Y-43882158D01*
X141924567Y-43952432D01*
X141895073Y-44017012D01*
X141851098Y-44049607D01*
X141789578Y-44076997D01*
X141789576Y-44076998D01*
X141783548Y-44079682D01*
X141629047Y-44191934D01*
X141624626Y-44196844D01*
X141624625Y-44196845D01*
X141515503Y-44318038D01*
X141501260Y-44333856D01*
X141486373Y-44359641D01*
X141416884Y-44480000D01*
X141405773Y-44499244D01*
X141346758Y-44680872D01*
X141346068Y-44687433D01*
X141346068Y-44687435D01*
X141338532Y-44759134D01*
X141326796Y-44870800D01*
X141346758Y-45060728D01*
X141405773Y-45242356D01*
X141409076Y-45248078D01*
X141409077Y-45248079D01*
X141411353Y-45252021D01*
X141501260Y-45407744D01*
X141505678Y-45412651D01*
X141505679Y-45412652D01*
X141595996Y-45512959D01*
X141629047Y-45549666D01*
X141783548Y-45661918D01*
X141789576Y-45664602D01*
X141789578Y-45664603D01*
X141914544Y-45720241D01*
X141958012Y-45739594D01*
X142051413Y-45759447D01*
X142138356Y-45777928D01*
X142138361Y-45777928D01*
X142144813Y-45779300D01*
X142335787Y-45779300D01*
X142342239Y-45777928D01*
X142342244Y-45777928D01*
X142429188Y-45759447D01*
X142522588Y-45739594D01*
X142566056Y-45720241D01*
X142691022Y-45664603D01*
X142691024Y-45664602D01*
X142697052Y-45661918D01*
X142851553Y-45549666D01*
X142855968Y-45544763D01*
X142860880Y-45540340D01*
X142862005Y-45541589D01*
X142915314Y-45508749D01*
X142948500Y-45504300D01*
X149853906Y-45504300D01*
X149922027Y-45524302D01*
X149943001Y-45541205D01*
X151159578Y-46757783D01*
X151193604Y-46820095D01*
X151195793Y-46833708D01*
X151208822Y-46957669D01*
X151213158Y-46998928D01*
X151272173Y-47180556D01*
X151367660Y-47345944D01*
X151460384Y-47448925D01*
X151491100Y-47512930D01*
X151482336Y-47583384D01*
X151475870Y-47596226D01*
X151390873Y-47743444D01*
X151331858Y-47925072D01*
X151331168Y-47931633D01*
X151331168Y-47931635D01*
X151329171Y-47950633D01*
X151311896Y-48115000D01*
X151331858Y-48304928D01*
X151390873Y-48486556D01*
X151486360Y-48651944D01*
X151614147Y-48793866D01*
X151768648Y-48906118D01*
X151774676Y-48908802D01*
X151774678Y-48908803D01*
X151937081Y-48981109D01*
X151943112Y-48983794D01*
X152036512Y-49003647D01*
X152123456Y-49022128D01*
X152123461Y-49022128D01*
X152129913Y-49023500D01*
X152320887Y-49023500D01*
X152327339Y-49022128D01*
X152327344Y-49022128D01*
X152414287Y-49003647D01*
X152507688Y-48983794D01*
X152513719Y-48981109D01*
X152676122Y-48908803D01*
X152676124Y-48908802D01*
X152682152Y-48906118D01*
X152836653Y-48793866D01*
X152964440Y-48651944D01*
X153059927Y-48486556D01*
X153118942Y-48304928D01*
X153136307Y-48139706D01*
X153163320Y-48074050D01*
X153172522Y-48063782D01*
X153224347Y-48011957D01*
X153232637Y-48004413D01*
X153239118Y-48000300D01*
X153285759Y-47950632D01*
X153288513Y-47947791D01*
X153308234Y-47928070D01*
X153310712Y-47924875D01*
X153318418Y-47915853D01*
X153343258Y-47889401D01*
X153348686Y-47883621D01*
X153358446Y-47865868D01*
X153369299Y-47849345D01*
X153376853Y-47839606D01*
X153381713Y-47833341D01*
X153399276Y-47792757D01*
X153404483Y-47782127D01*
X153425795Y-47743360D01*
X153427766Y-47735683D01*
X153427768Y-47735678D01*
X153430832Y-47723742D01*
X153437238Y-47705030D01*
X153442134Y-47693717D01*
X153445281Y-47686445D01*
X153452197Y-47642781D01*
X153454604Y-47631160D01*
X153463628Y-47596011D01*
X153463628Y-47596010D01*
X153465600Y-47588330D01*
X153465600Y-47568069D01*
X153467151Y-47548358D01*
X153469079Y-47536185D01*
X153470319Y-47528357D01*
X153466159Y-47484346D01*
X153465600Y-47472489D01*
X153465600Y-37679094D01*
X153485602Y-37610973D01*
X153502505Y-37589999D01*
X160957100Y-30135405D01*
X161019412Y-30101379D01*
X161046195Y-30098500D01*
X161102087Y-30098500D01*
X161108539Y-30097128D01*
X161108544Y-30097128D01*
X161195487Y-30078647D01*
X161288888Y-30058794D01*
X161294919Y-30056109D01*
X161457322Y-29983803D01*
X161457324Y-29983802D01*
X161463352Y-29981118D01*
X161617853Y-29868866D01*
X161745640Y-29726944D01*
X161841127Y-29561556D01*
X161900142Y-29379928D01*
X161920104Y-29190000D01*
X161900142Y-29000072D01*
X161841127Y-28818444D01*
X161745640Y-28653056D01*
X161617853Y-28511134D01*
X161463352Y-28398882D01*
X161457324Y-28396198D01*
X161457322Y-28396197D01*
X161294919Y-28323891D01*
X161294918Y-28323891D01*
X161288888Y-28321206D01*
X161195488Y-28301353D01*
X161108544Y-28282872D01*
X161108539Y-28282872D01*
X161102087Y-28281500D01*
X160911113Y-28281500D01*
X160904661Y-28282872D01*
X160904656Y-28282872D01*
X160817712Y-28301353D01*
X160724312Y-28321206D01*
X160718282Y-28323891D01*
X160718281Y-28323891D01*
X160555878Y-28396197D01*
X160555876Y-28396198D01*
X160549848Y-28398882D01*
X160395347Y-28511134D01*
X160267560Y-28653056D01*
X160172073Y-28818444D01*
X160113058Y-29000072D01*
X160112368Y-29006633D01*
X160112368Y-29006635D01*
X160095693Y-29165293D01*
X160068680Y-29230950D01*
X160059478Y-29241218D01*
X156852550Y-32448146D01*
X156790238Y-32482172D01*
X156719423Y-32477107D01*
X156662587Y-32434560D01*
X156637776Y-32368040D01*
X156638145Y-32345881D01*
X156655814Y-32177765D01*
X156656504Y-32171200D01*
X156636542Y-31981272D01*
X156577527Y-31799644D01*
X156482040Y-31634256D01*
X156354253Y-31492334D01*
X156199752Y-31380082D01*
X156193724Y-31377398D01*
X156193722Y-31377397D01*
X156031319Y-31305091D01*
X156031318Y-31305091D01*
X156025288Y-31302406D01*
X155931887Y-31282553D01*
X155844944Y-31264072D01*
X155844939Y-31264072D01*
X155838487Y-31262700D01*
X155647513Y-31262700D01*
X155641061Y-31264072D01*
X155641056Y-31264072D01*
X155554113Y-31282553D01*
X155460712Y-31302406D01*
X155454682Y-31305091D01*
X155454681Y-31305091D01*
X155292278Y-31377397D01*
X155292276Y-31377398D01*
X155286248Y-31380082D01*
X155131747Y-31492334D01*
X155003960Y-31634256D01*
X154908473Y-31799644D01*
X154849458Y-31981272D01*
X154848768Y-31987833D01*
X154848768Y-31987835D01*
X154832093Y-32146493D01*
X154805080Y-32212150D01*
X154795878Y-32222418D01*
X151981847Y-35036448D01*
X151973561Y-35043988D01*
X151967082Y-35048100D01*
X151961657Y-35053877D01*
X151920457Y-35097751D01*
X151917702Y-35100593D01*
X151897965Y-35120330D01*
X151895485Y-35123527D01*
X151887782Y-35132547D01*
X151857514Y-35164779D01*
X151853695Y-35171725D01*
X151853693Y-35171728D01*
X151847752Y-35182534D01*
X151836901Y-35199053D01*
X151824486Y-35215059D01*
X151821341Y-35222328D01*
X151821338Y-35222332D01*
X151806926Y-35255637D01*
X151801709Y-35266287D01*
X151780405Y-35305040D01*
X151778434Y-35312715D01*
X151778434Y-35312716D01*
X151775367Y-35324662D01*
X151768963Y-35343366D01*
X151760919Y-35361955D01*
X151759680Y-35369778D01*
X151759677Y-35369788D01*
X151754001Y-35405624D01*
X151751595Y-35417244D01*
X151740600Y-35460070D01*
X151740600Y-35480324D01*
X151739049Y-35500034D01*
X151735880Y-35520043D01*
X151736626Y-35527935D01*
X151740041Y-35564061D01*
X151740600Y-35575919D01*
X151740600Y-36950421D01*
X151720598Y-37018542D01*
X151666942Y-37065035D01*
X151596668Y-37075139D01*
X151588403Y-37073668D01*
X151467044Y-37047872D01*
X151467039Y-37047872D01*
X151460587Y-37046500D01*
X151269613Y-37046500D01*
X151263161Y-37047872D01*
X151263156Y-37047872D01*
X151202591Y-37060746D01*
X151082812Y-37086206D01*
X151076782Y-37088891D01*
X151076781Y-37088891D01*
X150914378Y-37161197D01*
X150914376Y-37161198D01*
X150908348Y-37163882D01*
X150903007Y-37167762D01*
X150903006Y-37167763D01*
X150857070Y-37201138D01*
X150753847Y-37276134D01*
X150749432Y-37281037D01*
X150744520Y-37285460D01*
X150743395Y-37284211D01*
X150690086Y-37317051D01*
X150656900Y-37321500D01*
X141343094Y-37321500D01*
X141274973Y-37301498D01*
X141228480Y-37247842D01*
X141218376Y-37177568D01*
X141247870Y-37112988D01*
X141253999Y-37106405D01*
X143852199Y-34508205D01*
X143914511Y-34474179D01*
X143941294Y-34471300D01*
X143997187Y-34471300D01*
X144003639Y-34469928D01*
X144003644Y-34469928D01*
X144090588Y-34451447D01*
X144183988Y-34431594D01*
X144190019Y-34428909D01*
X144352422Y-34356603D01*
X144352424Y-34356602D01*
X144358452Y-34353918D01*
X144512953Y-34241666D01*
X144517375Y-34236755D01*
X144636321Y-34104652D01*
X144636322Y-34104651D01*
X144640740Y-34099744D01*
X144736227Y-33934356D01*
X144795242Y-33752728D01*
X144799443Y-33712763D01*
X144814514Y-33569365D01*
X144815204Y-33562800D01*
X144795242Y-33372872D01*
X144736227Y-33191244D01*
X144640740Y-33025856D01*
X144512953Y-32883934D01*
X144358452Y-32771682D01*
X144352424Y-32768998D01*
X144352422Y-32768997D01*
X144190019Y-32696691D01*
X144190018Y-32696691D01*
X144183988Y-32694006D01*
X144090587Y-32674153D01*
X144003644Y-32655672D01*
X144003639Y-32655672D01*
X143997187Y-32654300D01*
X143806213Y-32654300D01*
X143799761Y-32655672D01*
X143799756Y-32655672D01*
X143712813Y-32674153D01*
X143619412Y-32694006D01*
X143613382Y-32696691D01*
X143613381Y-32696691D01*
X143450978Y-32768997D01*
X143450976Y-32768998D01*
X143444948Y-32771682D01*
X143290447Y-32883934D01*
X143162660Y-33025856D01*
X143067173Y-33191244D01*
X143008158Y-33372872D01*
X143007468Y-33379433D01*
X143007468Y-33379435D01*
X142990793Y-33538092D01*
X142963780Y-33603749D01*
X142954578Y-33614017D01*
X134322194Y-42246401D01*
X134259882Y-42280427D01*
X134189067Y-42275362D01*
X134144006Y-42246404D01*
X133822517Y-41924930D01*
X132583720Y-40686193D01*
X132549694Y-40623882D01*
X132547504Y-40610266D01*
X132547091Y-40606329D01*
X132535796Y-40498868D01*
X132530832Y-40451635D01*
X132530832Y-40451633D01*
X132530142Y-40445072D01*
X132471127Y-40263444D01*
X132463308Y-40249900D01*
X132397236Y-40135461D01*
X132375640Y-40098056D01*
X132351906Y-40071696D01*
X132252275Y-39961045D01*
X132252274Y-39961044D01*
X132247853Y-39956134D01*
X132106382Y-39853349D01*
X132098694Y-39847763D01*
X132098693Y-39847762D01*
X132093352Y-39843882D01*
X132087324Y-39841198D01*
X132087322Y-39841197D01*
X131924919Y-39768891D01*
X131924918Y-39768891D01*
X131918888Y-39766206D01*
X131825488Y-39746353D01*
X131738544Y-39727872D01*
X131738539Y-39727872D01*
X131732087Y-39726500D01*
X131541113Y-39726500D01*
X131534661Y-39727872D01*
X131534656Y-39727872D01*
X131447712Y-39746353D01*
X131354312Y-39766206D01*
X131348282Y-39768891D01*
X131348281Y-39768891D01*
X131185878Y-39841197D01*
X131185876Y-39841198D01*
X131179848Y-39843882D01*
X131174507Y-39847762D01*
X131174506Y-39847763D01*
X131166818Y-39853349D01*
X131025347Y-39956134D01*
X131020926Y-39961044D01*
X131020925Y-39961045D01*
X130921295Y-40071696D01*
X130897560Y-40098056D01*
X130875964Y-40135461D01*
X130809893Y-40249900D01*
X130802073Y-40263444D01*
X130743058Y-40445072D01*
X130742368Y-40451633D01*
X130742368Y-40451635D01*
X130727048Y-40597401D01*
X130723096Y-40635000D01*
X129459500Y-40635000D01*
X129459500Y-40402794D01*
X129479502Y-40334673D01*
X129496405Y-40313699D01*
X132138069Y-37672036D01*
X132200381Y-37638010D01*
X132253361Y-37637885D01*
X132296713Y-37647100D01*
X132487687Y-37647100D01*
X132494139Y-37645728D01*
X132494144Y-37645728D01*
X132597958Y-37623661D01*
X132674488Y-37607394D01*
X132680519Y-37604709D01*
X132842922Y-37532403D01*
X132842924Y-37532402D01*
X132848952Y-37529718D01*
X132877577Y-37508921D01*
X132939190Y-37464156D01*
X133003453Y-37417466D01*
X133008028Y-37412385D01*
X133126821Y-37280452D01*
X133126822Y-37280451D01*
X133131240Y-37275544D01*
X133207079Y-37144187D01*
X133223423Y-37115879D01*
X133223424Y-37115878D01*
X133226727Y-37110156D01*
X133285742Y-36928528D01*
X133305704Y-36738600D01*
X133285742Y-36548672D01*
X133226727Y-36367044D01*
X133131240Y-36201656D01*
X133003453Y-36059734D01*
X132848952Y-35947482D01*
X132842924Y-35944798D01*
X132842922Y-35944797D01*
X132680519Y-35872491D01*
X132680518Y-35872491D01*
X132674488Y-35869806D01*
X132581088Y-35849953D01*
X132494144Y-35831472D01*
X132494139Y-35831472D01*
X132487687Y-35830100D01*
X132296713Y-35830100D01*
X132290261Y-35831472D01*
X132290256Y-35831472D01*
X132203312Y-35849953D01*
X132109912Y-35869806D01*
X132103882Y-35872491D01*
X132103881Y-35872491D01*
X131941478Y-35944797D01*
X131941476Y-35944798D01*
X131935448Y-35947482D01*
X131780947Y-36059734D01*
X131653160Y-36201656D01*
X131557673Y-36367044D01*
X131555633Y-36373324D01*
X131555632Y-36373325D01*
X131521979Y-36476896D01*
X131491241Y-36527054D01*
X128433747Y-39584548D01*
X128425461Y-39592088D01*
X128418982Y-39596200D01*
X128413557Y-39601977D01*
X128372357Y-39645851D01*
X128369602Y-39648693D01*
X128349865Y-39668430D01*
X128347385Y-39671627D01*
X128339682Y-39680647D01*
X128309414Y-39712879D01*
X128305595Y-39719825D01*
X128305593Y-39719828D01*
X128299652Y-39730634D01*
X128288801Y-39747153D01*
X128276386Y-39763159D01*
X128273241Y-39770428D01*
X128273238Y-39770432D01*
X128258826Y-39803737D01*
X128253609Y-39814387D01*
X128232305Y-39853140D01*
X128230334Y-39860815D01*
X128230334Y-39860816D01*
X128227267Y-39872762D01*
X128220863Y-39891466D01*
X128212819Y-39910055D01*
X128211580Y-39917878D01*
X128211577Y-39917888D01*
X128205901Y-39953724D01*
X128203495Y-39965344D01*
X128192500Y-40008170D01*
X128192500Y-40028424D01*
X128190949Y-40048134D01*
X128187780Y-40068143D01*
X128188526Y-40076035D01*
X128191941Y-40112161D01*
X128192500Y-40124019D01*
X128192500Y-51297476D01*
X128172498Y-51365597D01*
X128160142Y-51381779D01*
X128086960Y-51463056D01*
X128083659Y-51468774D01*
X127994915Y-51622483D01*
X127991473Y-51628444D01*
X127932458Y-51810072D01*
X127931768Y-51816633D01*
X127931768Y-51816635D01*
X127923819Y-51892270D01*
X127912496Y-52000000D01*
X114508500Y-52000000D01*
X114508500Y-46767399D01*
X117337212Y-46767399D01*
X117358694Y-46856537D01*
X117362583Y-46867832D01*
X117445129Y-47049382D01*
X117451076Y-47059724D01*
X117566468Y-47222397D01*
X117574261Y-47231425D01*
X117718331Y-47369342D01*
X117727696Y-47376738D01*
X117895241Y-47484921D01*
X117905845Y-47490417D01*
X118090812Y-47564961D01*
X118102270Y-47568355D01*
X118299428Y-47606857D01*
X118308291Y-47607934D01*
X118311000Y-47608000D01*
X118490385Y-47608000D01*
X118505624Y-47603525D01*
X118506829Y-47602135D01*
X118508500Y-47594452D01*
X118508500Y-47589885D01*
X119016500Y-47589885D01*
X119020975Y-47605124D01*
X119022365Y-47606329D01*
X119030048Y-47608000D01*
X119162332Y-47608000D01*
X119168308Y-47607715D01*
X119316994Y-47593529D01*
X119328728Y-47591270D01*
X119520099Y-47535128D01*
X119531175Y-47530698D01*
X119708478Y-47439381D01*
X119718524Y-47432931D01*
X119875357Y-47309738D01*
X119884006Y-47301501D01*
X120014712Y-47150877D01*
X120021647Y-47141153D01*
X120121510Y-46968533D01*
X120126484Y-46957669D01*
X120191907Y-46769273D01*
X120192148Y-46768284D01*
X120190680Y-46757992D01*
X120177115Y-46754000D01*
X119034615Y-46754000D01*
X119019376Y-46758475D01*
X119018171Y-46759865D01*
X119016500Y-46767548D01*
X119016500Y-47589885D01*
X118508500Y-47589885D01*
X118508500Y-46772115D01*
X118504025Y-46756876D01*
X118502635Y-46755671D01*
X118494952Y-46754000D01*
X117352098Y-46754000D01*
X117338567Y-46757973D01*
X117337212Y-46767399D01*
X114508500Y-46767399D01*
X114508500Y-46532211D01*
X120794844Y-46532211D01*
X120804140Y-46544226D01*
X120839137Y-46568731D01*
X120848632Y-46574214D01*
X121034196Y-46660744D01*
X121044488Y-46664490D01*
X121242259Y-46717482D01*
X121253054Y-46719385D01*
X121457025Y-46737231D01*
X121467975Y-46737231D01*
X121671946Y-46719385D01*
X121682741Y-46717482D01*
X121880512Y-46664490D01*
X121890804Y-46660744D01*
X122076368Y-46574214D01*
X122085863Y-46568731D01*
X122121697Y-46543640D01*
X122130073Y-46533161D01*
X122123005Y-46519715D01*
X121475312Y-45872022D01*
X121461368Y-45864408D01*
X121459535Y-45864539D01*
X121452920Y-45868790D01*
X120801274Y-46520436D01*
X120794844Y-46532211D01*
X114508500Y-46532211D01*
X114508500Y-46231716D01*
X117332852Y-46231716D01*
X117334320Y-46242008D01*
X117347885Y-46246000D01*
X118490385Y-46246000D01*
X118505624Y-46241525D01*
X118506829Y-46240135D01*
X118508500Y-46232452D01*
X118508500Y-46227885D01*
X119016500Y-46227885D01*
X119020975Y-46243124D01*
X119022365Y-46244329D01*
X119030048Y-46246000D01*
X120172902Y-46246000D01*
X120186432Y-46242027D01*
X120190596Y-46213062D01*
X120220089Y-46148481D01*
X120279815Y-46110097D01*
X120350812Y-46110097D01*
X120410538Y-46148480D01*
X120418525Y-46158720D01*
X120418858Y-46159195D01*
X120429339Y-46167573D01*
X120442785Y-46160505D01*
X121090478Y-45512812D01*
X121096856Y-45501132D01*
X121826908Y-45501132D01*
X121827039Y-45502965D01*
X121831290Y-45509580D01*
X122482936Y-46161226D01*
X122494711Y-46167656D01*
X122506726Y-46158360D01*
X122531231Y-46123363D01*
X122536714Y-46113868D01*
X122623244Y-45928304D01*
X122626990Y-45918012D01*
X122679982Y-45720241D01*
X122681885Y-45709446D01*
X122699731Y-45505475D01*
X122699731Y-45494525D01*
X122681885Y-45290554D01*
X122679982Y-45279759D01*
X122626990Y-45081988D01*
X122623244Y-45071696D01*
X122536714Y-44886132D01*
X122531231Y-44876637D01*
X122506140Y-44840803D01*
X122495661Y-44832427D01*
X122482215Y-44839495D01*
X121834522Y-45487188D01*
X121826908Y-45501132D01*
X121096856Y-45501132D01*
X121098092Y-45498868D01*
X121097961Y-45497035D01*
X121093710Y-45490420D01*
X120442064Y-44838774D01*
X120430289Y-44832344D01*
X120418274Y-44841640D01*
X120393769Y-44876637D01*
X120388286Y-44886132D01*
X120301756Y-45071696D01*
X120298010Y-45081988D01*
X120245018Y-45279759D01*
X120243115Y-45290554D01*
X120225269Y-45494525D01*
X120225269Y-45505475D01*
X120243115Y-45709446D01*
X120245018Y-45720238D01*
X120261927Y-45783344D01*
X120260237Y-45854321D01*
X120220443Y-45913117D01*
X120155179Y-45941065D01*
X120085165Y-45929292D01*
X120037451Y-45888856D01*
X119958538Y-45777610D01*
X119950739Y-45768575D01*
X119806669Y-45630658D01*
X119797304Y-45623262D01*
X119629759Y-45515079D01*
X119619155Y-45509583D01*
X119434188Y-45435039D01*
X119422730Y-45431645D01*
X119225572Y-45393143D01*
X119216709Y-45392066D01*
X119214000Y-45392000D01*
X119034615Y-45392000D01*
X119019376Y-45396475D01*
X119018171Y-45397865D01*
X119016500Y-45405548D01*
X119016500Y-46227885D01*
X118508500Y-46227885D01*
X118508500Y-45410115D01*
X118504025Y-45394876D01*
X118502635Y-45393671D01*
X118494952Y-45392000D01*
X118362668Y-45392000D01*
X118356692Y-45392285D01*
X118208006Y-45406471D01*
X118196272Y-45408730D01*
X118004901Y-45464872D01*
X117993825Y-45469302D01*
X117816522Y-45560619D01*
X117806476Y-45567069D01*
X117649643Y-45690262D01*
X117640994Y-45698499D01*
X117510288Y-45849123D01*
X117503353Y-45858847D01*
X117403490Y-46031467D01*
X117398516Y-46042331D01*
X117333093Y-46230727D01*
X117332852Y-46231716D01*
X114508500Y-46231716D01*
X114508500Y-44466839D01*
X120794927Y-44466839D01*
X120801995Y-44480285D01*
X121449688Y-45127978D01*
X121463632Y-45135592D01*
X121465465Y-45135461D01*
X121472080Y-45131210D01*
X122123726Y-44479564D01*
X122130156Y-44467789D01*
X122120860Y-44455774D01*
X122085863Y-44431269D01*
X122076368Y-44425786D01*
X121890804Y-44339256D01*
X121880512Y-44335510D01*
X121682741Y-44282518D01*
X121671946Y-44280615D01*
X121467975Y-44262769D01*
X121457025Y-44262769D01*
X121253054Y-44280615D01*
X121242259Y-44282518D01*
X121044488Y-44335510D01*
X121034196Y-44339256D01*
X120848632Y-44425786D01*
X120839137Y-44431269D01*
X120803303Y-44456360D01*
X120794927Y-44466839D01*
X114508500Y-44466839D01*
X114508500Y-41532211D01*
X120794844Y-41532211D01*
X120804140Y-41544226D01*
X120839137Y-41568731D01*
X120848632Y-41574214D01*
X121034196Y-41660744D01*
X121044488Y-41664490D01*
X121242259Y-41717482D01*
X121253054Y-41719385D01*
X121457025Y-41737231D01*
X121467975Y-41737231D01*
X121671946Y-41719385D01*
X121682741Y-41717482D01*
X121880512Y-41664490D01*
X121890804Y-41660744D01*
X122076368Y-41574214D01*
X122085863Y-41568731D01*
X122121697Y-41543640D01*
X122130073Y-41533161D01*
X122123005Y-41519715D01*
X121475312Y-40872022D01*
X121461368Y-40864408D01*
X121459535Y-40864539D01*
X121452920Y-40868790D01*
X120801274Y-41520436D01*
X120794844Y-41532211D01*
X114508500Y-41532211D01*
X114508500Y-39767399D01*
X117337212Y-39767399D01*
X117358694Y-39856537D01*
X117362583Y-39867832D01*
X117445129Y-40049382D01*
X117451076Y-40059724D01*
X117566468Y-40222397D01*
X117574261Y-40231425D01*
X117718331Y-40369342D01*
X117727696Y-40376738D01*
X117895241Y-40484921D01*
X117905845Y-40490417D01*
X118090812Y-40564961D01*
X118102270Y-40568355D01*
X118299428Y-40606857D01*
X118308291Y-40607934D01*
X118311000Y-40608000D01*
X118490385Y-40608000D01*
X118505624Y-40603525D01*
X118506829Y-40602135D01*
X118508500Y-40594452D01*
X118508500Y-40589885D01*
X119016500Y-40589885D01*
X119020975Y-40605124D01*
X119022365Y-40606329D01*
X119030048Y-40608000D01*
X119162332Y-40608000D01*
X119168308Y-40607715D01*
X119316994Y-40593529D01*
X119328728Y-40591270D01*
X119520099Y-40535128D01*
X119531175Y-40530698D01*
X119708478Y-40439381D01*
X119718524Y-40432931D01*
X119875357Y-40309738D01*
X119884006Y-40301501D01*
X120014712Y-40150877D01*
X120021647Y-40141153D01*
X120029275Y-40127968D01*
X120080700Y-40079019D01*
X120150426Y-40065644D01*
X120216314Y-40092089D01*
X120257445Y-40149957D01*
X120260046Y-40223674D01*
X120245018Y-40279759D01*
X120243115Y-40290554D01*
X120225269Y-40494525D01*
X120225269Y-40505475D01*
X120243115Y-40709446D01*
X120245018Y-40720241D01*
X120298010Y-40918012D01*
X120301756Y-40928304D01*
X120388286Y-41113868D01*
X120393769Y-41123363D01*
X120418860Y-41159197D01*
X120429339Y-41167573D01*
X120442785Y-41160505D01*
X121090478Y-40512812D01*
X121096856Y-40501132D01*
X121826908Y-40501132D01*
X121827039Y-40502965D01*
X121831290Y-40509580D01*
X122482936Y-41161226D01*
X122494711Y-41167656D01*
X122506726Y-41158360D01*
X122531231Y-41123363D01*
X122536714Y-41113868D01*
X122623244Y-40928304D01*
X122626990Y-40918012D01*
X122679982Y-40720241D01*
X122681885Y-40709446D01*
X122699731Y-40505475D01*
X122699731Y-40494525D01*
X122681885Y-40290554D01*
X122679982Y-40279759D01*
X122626990Y-40081988D01*
X122623244Y-40071696D01*
X122536714Y-39886132D01*
X122531231Y-39876637D01*
X122506140Y-39840803D01*
X122495661Y-39832427D01*
X122482215Y-39839495D01*
X121834522Y-40487188D01*
X121826908Y-40501132D01*
X121096856Y-40501132D01*
X121098092Y-40498868D01*
X121097961Y-40497035D01*
X121093710Y-40490420D01*
X120442064Y-39838774D01*
X120430289Y-39832344D01*
X120403139Y-39853349D01*
X120402197Y-39852132D01*
X120366570Y-39880610D01*
X120295951Y-39887920D01*
X120232590Y-39855889D01*
X120196605Y-39794688D01*
X120194075Y-39781799D01*
X120190680Y-39757992D01*
X120177115Y-39754000D01*
X119034615Y-39754000D01*
X119019376Y-39758475D01*
X119018171Y-39759865D01*
X119016500Y-39767548D01*
X119016500Y-40589885D01*
X118508500Y-40589885D01*
X118508500Y-39772115D01*
X118504025Y-39756876D01*
X118502635Y-39755671D01*
X118494952Y-39754000D01*
X117352098Y-39754000D01*
X117338567Y-39757973D01*
X117337212Y-39767399D01*
X114508500Y-39767399D01*
X114508500Y-39466839D01*
X120794927Y-39466839D01*
X120801995Y-39480285D01*
X121449688Y-40127978D01*
X121463632Y-40135592D01*
X121465465Y-40135461D01*
X121472080Y-40131210D01*
X122123726Y-39479564D01*
X122130156Y-39467789D01*
X122120860Y-39455774D01*
X122085863Y-39431269D01*
X122076368Y-39425786D01*
X121890804Y-39339256D01*
X121880512Y-39335510D01*
X121682741Y-39282518D01*
X121671946Y-39280615D01*
X121467975Y-39262769D01*
X121457025Y-39262769D01*
X121253054Y-39280615D01*
X121242259Y-39282518D01*
X121044488Y-39335510D01*
X121034196Y-39339256D01*
X120848632Y-39425786D01*
X120839137Y-39431269D01*
X120803303Y-39456360D01*
X120794927Y-39466839D01*
X114508500Y-39466839D01*
X114508500Y-39231716D01*
X117332852Y-39231716D01*
X117334320Y-39242008D01*
X117347885Y-39246000D01*
X118490385Y-39246000D01*
X118505624Y-39241525D01*
X118506829Y-39240135D01*
X118508500Y-39232452D01*
X118508500Y-39227885D01*
X119016500Y-39227885D01*
X119020975Y-39243124D01*
X119022365Y-39244329D01*
X119030048Y-39246000D01*
X120172902Y-39246000D01*
X120186433Y-39242027D01*
X120187788Y-39232601D01*
X120166306Y-39143463D01*
X120162417Y-39132168D01*
X120079871Y-38950618D01*
X120073924Y-38940276D01*
X119958532Y-38777603D01*
X119950739Y-38768575D01*
X119806669Y-38630658D01*
X119797304Y-38623262D01*
X119629759Y-38515079D01*
X119619155Y-38509583D01*
X119434188Y-38435039D01*
X119422730Y-38431645D01*
X119225572Y-38393143D01*
X119216709Y-38392066D01*
X119214000Y-38392000D01*
X119034615Y-38392000D01*
X119019376Y-38396475D01*
X119018171Y-38397865D01*
X119016500Y-38405548D01*
X119016500Y-39227885D01*
X118508500Y-39227885D01*
X118508500Y-38410115D01*
X118504025Y-38394876D01*
X118502635Y-38393671D01*
X118494952Y-38392000D01*
X118362668Y-38392000D01*
X118356692Y-38392285D01*
X118208006Y-38406471D01*
X118196272Y-38408730D01*
X118004901Y-38464872D01*
X117993825Y-38469302D01*
X117816522Y-38560619D01*
X117806476Y-38567069D01*
X117649643Y-38690262D01*
X117640994Y-38698499D01*
X117510288Y-38849123D01*
X117503353Y-38858847D01*
X117403490Y-39031467D01*
X117398516Y-39042331D01*
X117333093Y-39230727D01*
X117332852Y-39231716D01*
X114508500Y-39231716D01*
X114508500Y-37634500D01*
X114528502Y-37566379D01*
X114582158Y-37519886D01*
X114634500Y-37508500D01*
X124991377Y-37508500D01*
X124992148Y-37508502D01*
X125069721Y-37508976D01*
X125098152Y-37500850D01*
X125114915Y-37497272D01*
X125115753Y-37497152D01*
X125144187Y-37493080D01*
X125167564Y-37482451D01*
X125185087Y-37476004D01*
X125209771Y-37468949D01*
X125217365Y-37464157D01*
X125217368Y-37464156D01*
X125234780Y-37453170D01*
X125249865Y-37445030D01*
X125276782Y-37432792D01*
X125296235Y-37416030D01*
X125311239Y-37404927D01*
X125332958Y-37391224D01*
X125338897Y-37384499D01*
X125338901Y-37384496D01*
X125352532Y-37369062D01*
X125364724Y-37357018D01*
X125380327Y-37343573D01*
X125380329Y-37343570D01*
X125387127Y-37337713D01*
X125401094Y-37316165D01*
X125412385Y-37301291D01*
X125423431Y-37288783D01*
X125423432Y-37288782D01*
X125429378Y-37282049D01*
X125441943Y-37255287D01*
X125450263Y-37240309D01*
X125461471Y-37223017D01*
X125461473Y-37223012D01*
X125466352Y-37215485D01*
X125468922Y-37206892D01*
X125468924Y-37206887D01*
X125473711Y-37190880D01*
X125480372Y-37173436D01*
X125487467Y-37158324D01*
X125487468Y-37158322D01*
X125491281Y-37150200D01*
X125495830Y-37120983D01*
X125499613Y-37104268D01*
X125505515Y-37084534D01*
X125505516Y-37084528D01*
X125508086Y-37075934D01*
X125508296Y-37041494D01*
X125508329Y-37040711D01*
X125508500Y-37039614D01*
X125508500Y-37008623D01*
X125508502Y-37007853D01*
X125508952Y-36934215D01*
X125508952Y-36934214D01*
X125508976Y-36930279D01*
X125508592Y-36928935D01*
X125508500Y-36927590D01*
X125508500Y-26634500D01*
X125528502Y-26566379D01*
X125582158Y-26519886D01*
X125634500Y-26508500D01*
X195365500Y-26508500D01*
X195433621Y-26528502D01*
G37*
%TD.AperFunction*%
%TD*%
M02*
