%TF.GenerationSoftware,KiCad,Pcbnew,(6.0.5)*%
%TF.CreationDate,2022-06-07T21:42:27+02:00*%
%TF.ProjectId,ESP32-LoRA-ADIO,45535033-322d-44c6-9f52-412d4144494f,rev?*%
%TF.SameCoordinates,Original*%
%TF.FileFunction,Soldermask,Top*%
%TF.FilePolarity,Negative*%
%FSLAX46Y46*%
G04 Gerber Fmt 4.6, Leading zero omitted, Abs format (unit mm)*
G04 Created by KiCad (PCBNEW (6.0.5)) date 2022-06-07 21:42:27*
%MOMM*%
%LPD*%
G01*
G04 APERTURE LIST*
G04 Aperture macros list*
%AMRoundRect*
0 Rectangle with rounded corners*
0 $1 Rounding radius*
0 $2 $3 $4 $5 $6 $7 $8 $9 X,Y pos of 4 corners*
0 Add a 4 corners polygon primitive as box body*
4,1,4,$2,$3,$4,$5,$6,$7,$8,$9,$2,$3,0*
0 Add four circle primitives for the rounded corners*
1,1,$1+$1,$2,$3*
1,1,$1+$1,$4,$5*
1,1,$1+$1,$6,$7*
1,1,$1+$1,$8,$9*
0 Add four rect primitives between the rounded corners*
20,1,$1+$1,$2,$3,$4,$5,0*
20,1,$1+$1,$4,$5,$6,$7,0*
20,1,$1+$1,$6,$7,$8,$9,0*
20,1,$1+$1,$8,$9,$2,$3,0*%
G04 Aperture macros list end*
%ADD10R,5.000000X5.000000*%
%ADD11R,2.000000X0.900000*%
%ADD12R,0.900000X2.000000*%
%ADD13RoundRect,0.237500X-0.300000X-0.237500X0.300000X-0.237500X0.300000X0.237500X-0.300000X0.237500X0*%
%ADD14RoundRect,0.250000X-0.400000X-0.625000X0.400000X-0.625000X0.400000X0.625000X-0.400000X0.625000X0*%
%ADD15R,1.000000X1.500000*%
%ADD16RoundRect,0.150000X0.825000X0.150000X-0.825000X0.150000X-0.825000X-0.150000X0.825000X-0.150000X0*%
%ADD17R,2.000000X1.500000*%
%ADD18R,2.000000X3.800000*%
%ADD19R,1.000000X1.000000*%
%ADD20O,1.700000X1.950000*%
%ADD21RoundRect,0.250000X-0.600000X-0.725000X0.600000X-0.725000X0.600000X0.725000X-0.600000X0.725000X0*%
%ADD22R,1.350000X0.400000*%
%ADD23O,1.900000X1.200000*%
%ADD24R,1.900000X1.500000*%
%ADD25C,1.450000*%
%ADD26R,1.900000X1.200000*%
%ADD27C,2.250000*%
%ADD28C,2.050000*%
%ADD29RoundRect,0.237500X0.300000X0.237500X-0.300000X0.237500X-0.300000X-0.237500X0.300000X-0.237500X0*%
%ADD30R,2.000000X1.000000*%
%ADD31O,2.000000X1.700000*%
%ADD32RoundRect,0.250000X-0.750000X0.600000X-0.750000X-0.600000X0.750000X-0.600000X0.750000X0.600000X0*%
%ADD33RoundRect,0.150000X-0.587500X-0.150000X0.587500X-0.150000X0.587500X0.150000X-0.587500X0.150000X0*%
%ADD34O,1.700000X2.000000*%
%ADD35RoundRect,0.250000X-0.600000X-0.750000X0.600000X-0.750000X0.600000X0.750000X-0.600000X0.750000X0*%
%ADD36RoundRect,0.250001X-0.499999X-0.924999X0.499999X-0.924999X0.499999X0.924999X-0.499999X0.924999X0*%
%ADD37R,2.100000X1.800000*%
G04 APERTURE END LIST*
D10*
%TO.C,U3*%
X156475000Y-41645000D03*
D11*
X165975000Y-34145000D03*
X165975000Y-35415000D03*
X165975000Y-36685000D03*
X165975000Y-37955000D03*
X165975000Y-39225000D03*
X165975000Y-40495000D03*
X165975000Y-41765000D03*
X165975000Y-43035000D03*
X165975000Y-44305000D03*
X165975000Y-45575000D03*
X165975000Y-46845000D03*
X165975000Y-48115000D03*
X165975000Y-49385000D03*
X165975000Y-50655000D03*
D12*
X163190000Y-51655000D03*
X161920000Y-51655000D03*
X160650000Y-51655000D03*
X159380000Y-51655000D03*
X158110000Y-51655000D03*
X156840000Y-51655000D03*
X155570000Y-51655000D03*
X154300000Y-51655000D03*
X153030000Y-51655000D03*
X151760000Y-51655000D03*
D11*
X148975000Y-50655000D03*
X148975000Y-49385000D03*
X148975000Y-48115000D03*
X148975000Y-46845000D03*
X148975000Y-45575000D03*
X148975000Y-44305000D03*
X148975000Y-43035000D03*
X148975000Y-41765000D03*
X148975000Y-40495000D03*
X148975000Y-39225000D03*
X148975000Y-37955000D03*
X148975000Y-36685000D03*
X148975000Y-35415000D03*
X148975000Y-34145000D03*
%TD*%
D13*
%TO.C,C1*%
X151362500Y-58000000D03*
X149637500Y-58000000D03*
%TD*%
D14*
%TO.C,R1*%
X131600000Y-64500000D03*
X128500000Y-64500000D03*
%TD*%
D15*
%TO.C,JP2*%
X184200000Y-73500000D03*
X185500000Y-73500000D03*
X186800000Y-73500000D03*
%TD*%
D13*
%TO.C,C2*%
X130487500Y-57650000D03*
X128762500Y-57650000D03*
%TD*%
D16*
%TO.C,U2*%
X129025000Y-44445000D03*
X129025000Y-43175000D03*
X129025000Y-41905000D03*
X129025000Y-40635000D03*
X129025000Y-39365000D03*
X129025000Y-38095000D03*
X129025000Y-36825000D03*
X129025000Y-35555000D03*
X133975000Y-35555000D03*
X133975000Y-36825000D03*
X133975000Y-38095000D03*
X133975000Y-39365000D03*
X133975000Y-40635000D03*
X133975000Y-41905000D03*
X133975000Y-43175000D03*
X133975000Y-44445000D03*
%TD*%
D17*
%TO.C,U1*%
X147200000Y-66800000D03*
D18*
X153500000Y-64500000D03*
D17*
X147200000Y-64500000D03*
X147200000Y-62200000D03*
%TD*%
D13*
%TO.C,C4*%
X132362500Y-30500000D03*
X130637500Y-30500000D03*
%TD*%
D19*
%TO.C,D1*%
X126500000Y-49500000D03*
X124000000Y-49500000D03*
%TD*%
D20*
%TO.C,J5*%
X140750000Y-80975000D03*
X138250000Y-80975000D03*
X135750000Y-80975000D03*
D21*
X133250000Y-80975000D03*
%TD*%
D14*
%TO.C,R2*%
X141000000Y-49000000D03*
X137900000Y-49000000D03*
%TD*%
D20*
%TO.C,J3*%
X166250000Y-81475000D03*
X163750000Y-81475000D03*
X161250000Y-81475000D03*
D21*
X158750000Y-81475000D03*
%TD*%
D22*
%TO.C,J1*%
X121462500Y-41700000D03*
X121462500Y-42350000D03*
X121462500Y-43000000D03*
X121462500Y-43650000D03*
X121462500Y-44300000D03*
D23*
X118762500Y-46500000D03*
D24*
X118762500Y-42000000D03*
D25*
X121462500Y-40500000D03*
D23*
X118762500Y-39500000D03*
D26*
X118762500Y-45900000D03*
D24*
X118762500Y-44000000D03*
D26*
X118762500Y-40100000D03*
D25*
X121462500Y-45500000D03*
%TD*%
D27*
%TO.C,J6*%
X202580000Y-41920000D03*
X197500000Y-47000000D03*
X197500000Y-41920000D03*
X202580000Y-47000000D03*
D28*
X200040000Y-44460000D03*
%TD*%
D14*
%TO.C,R3*%
X140100000Y-30500000D03*
X137000000Y-30500000D03*
%TD*%
D29*
%TO.C,C3*%
X133137500Y-57500000D03*
X134862500Y-57500000D03*
%TD*%
D14*
%TO.C,R4*%
X193100000Y-67000000D03*
X190000000Y-67000000D03*
%TD*%
D30*
%TO.C,U4*%
X191000000Y-30500000D03*
X191000000Y-32500000D03*
X191000000Y-34500000D03*
X191000000Y-36500000D03*
X191000000Y-38500000D03*
X191000000Y-40500000D03*
X191000000Y-42500000D03*
X191000000Y-44500000D03*
X175000000Y-44500000D03*
X175000000Y-42500000D03*
X175000000Y-40500000D03*
X175000000Y-38500000D03*
X175000000Y-36500000D03*
X175000000Y-34500000D03*
X175000000Y-32500000D03*
X175000000Y-30500000D03*
%TD*%
D15*
%TO.C,JP1*%
X193300000Y-73500000D03*
X192000000Y-73500000D03*
X190700000Y-73500000D03*
%TD*%
D31*
%TO.C,J2*%
X120000000Y-70500000D03*
D32*
X120000000Y-68000000D03*
%TD*%
D33*
%TO.C,Q2*%
X141437500Y-36500000D03*
X139562500Y-37450000D03*
X139562500Y-35550000D03*
%TD*%
%TO.C,Q1*%
X130437500Y-70500000D03*
X128562500Y-71450000D03*
X128562500Y-69550000D03*
%TD*%
D34*
%TO.C,J4*%
X191000000Y-81500000D03*
D35*
X188500000Y-81500000D03*
%TD*%
D33*
%TO.C,Q3*%
X141375000Y-43950000D03*
X139500000Y-44900000D03*
X139500000Y-43000000D03*
%TD*%
D36*
%TO.C,C5*%
X151750000Y-73000000D03*
X148500000Y-73000000D03*
%TD*%
D37*
%TO.C,Y1*%
X130500000Y-49700000D03*
X133400000Y-49700000D03*
X133400000Y-52000000D03*
X130500000Y-52000000D03*
%TD*%
D14*
%TO.C,R5*%
X186550000Y-67000000D03*
X183450000Y-67000000D03*
%TD*%
M02*
